<svg className = "w-6 h-6" xmlns="http://www.w3.org/2000/svg" version="1.1" viewBox="-5.0 -10.0 110.0 135.0">
 <path d="m22.602 61.141c0-0.82031 0.67969-1.5 1.5-1.5 0.83984 0 1.5 0.67969 1.5 1.5 0 0.84375-0.66016 1.5-1.5 1.5-0.82031 0-1.5-0.65625-1.5-1.5zm73.898 30.328c0 2.7773-2.2578 5.0352-5.0352 5.0352l-82.93-0.003906c-2.7773 0-5.0352-2.2578-5.0352-5.0352 0-2.7734 2.2578-5.0312 5.0352-5.0312h10.125v-16.211c0-1.6875 0.28906-3.3359 0.86328-4.9141 0.28125-0.78125 1.1406-1.1719 1.9219-0.89844 0.77734 0.28125 1.1797 1.1445 0.89844 1.9219-0.45312 1.2422-0.68359 2.5508-0.68359 3.8828v16.211h4.9766c-0.29688-4.7188 0.32812-9.4375 1.125-14.109 1.2539-2.1016 1.6055 6.6562 1.7812 7.4141 0.16016 2.2461 0.41406 6.6953 0.41406 6.6953h31.199c-0.27734-0.625-0.4375-1.3086-0.4375-2.0352 0-2.1133 1.3125-3.918 3.1641-4.6641v-0.30859c0-4.5938 3.3711-8.3906 7.7656-9.1133v-1.1211c0-0.82812 0.67187-1.5 1.5-1.5 0.82812 0 1.5 0.67188 1.5 1.5v1.1211c1.3477 0.22266 2.6055 0.70703 3.6953 1.4453v-1.5391c0-6.2734-5.1133-11.383-11.398-11.383h-4.0664c-0.125 0-0.23438 0.085937-0.26562 0.21094l-1.8477 7.5859c-0.72266 2.9805-3.375 5.0625-6.4453 5.0625h-8.5c-3.0781 0-5.7344-2.0938-6.4531-5.0859l-1.8164-7.5625c-0.03125-0.125-0.14062-0.21094-0.26562-0.21094h-4.2188c-1.1484 0-2.2812 0.17188-3.3672 0.50781-0.79688 0.24219-1.6328-0.19531-1.875-0.99219-0.24219-0.78906 0.19922-1.6328 0.99219-1.875 1.375-0.42578 2.8047-0.64062 4.2578-0.64062h4.2188c1.3281 0 2.457 0.8125 2.9648 2h0.53125c1.1602 0 2.1055-0.94531 2.1055-2.1055v-4.5156c-2.9453-1.5547-5.3438-4.0469-6.7617-7.1484-0.48828 0.11719-0.98828 0.1875-1.5039 0.1875-3.5781 0-6.4844-2.9102-6.4844-6.4844 0-3.082 2.1641-5.668 5.0781-6.3164-0.38281-4.1836 0.79688-8.3906 3.4492-11.816 1.4648-1.8906 3.2773-3.3906 5.3047-4.4883-0.36719-0.96875-0.56641-2-0.56641-3.043 0-4.7422 3.8594-8.6016 8.6016-8.6016 4.7422 0 8.6016 3.8594 8.6016 8.6016 0 1.043-0.19531 2.0781-0.5625 3.0469 2.0234 1.0977 3.8359 2.6016 5.3008 4.4883 2.6445 3.4141 3.8242 7.6055 3.4453 11.812 2.9219 0.64453 5.082 3.2344 5.082 6.3203 0 3.5781-2.9102 6.4844-6.4844 6.4844-0.51953 0-1.0234-0.070312-1.5156-0.19141-1.4258 3.1094-3.8164 5.5977-6.75 7.1484v4.5195c0 1.1602 0.94531 2.1055 2.1055 2.1055h0.6875c0.50781-1.1836 1.6367-2 2.9648-2h4.0664c7.9375 0 14.398 6.4531 14.398 14.383v4.9844c0.66016 1.2734 1.0703 2.6914 1.0703 4.2227v0.30859c1.8477 0.74609 3.1602 2.5508 3.1602 4.6641 0 0.72656-0.16016 1.4102-0.4375 2.0352h6.332c2.7773 0 5.0352 2.2578 5.0352 5.0312zm-31.645-50.266c0.17188 0.027344 0.34766 0.054687 0.52734 0.054687 1.9219 0 3.4844-1.5625 3.4844-3.4844 0-1.6055-1.0859-2.9609-2.5742-3.3633zm-29.715 0-1.4375-6.793c-1.4883 0.40234-2.5742 1.7578-2.5742 3.3633 0 1.9219 1.5625 3.4844 3.4844 3.4844 0.17969 0 0.35156-0.03125 0.52734-0.054687zm22.082-11.941c1.3945 1.5391 3.9609 2.9453 6.293 3.7383 0.89844-4.0859-0.011719-8.2383-2.5508-11.516-0.33203-0.42578-0.68359-0.83203-1.0547-1.2109 0.16016 4.0781-1.6406 7.4141-2.6875 8.9922zm-12.832-17.152c0 0.63281 0.14453 1.2461 0.35156 1.8398 1.6719-0.54297 3.4336-0.84766 5.25-0.84766 1.8164 0 3.582 0.30469 5.25 0.84766 0.20703-0.59375 0.35156-1.207 0.35156-1.8398 0-3.0898-2.5156-5.6016-5.6016-5.6016-3.0898 0-5.6016 2.5156-5.6016 5.6016zm-8.125 19.852c4.6953 1.1797 14.73 0.75781 17.875-3.5625 0.011719-0.019532 1.2305-1.5234 2.0234-3.6875 0.69531-1.9102 1.1172-4.3984 0.24219-7.0312-1.9492-1.0195-4.1328-1.5781-6.4141-1.5781-4.3242 0-8.3203 1.9609-10.969 5.3789-2.3359 3.0156-3.3047 6.7656-2.7578 10.48zm13.727 18.035c5.5938 0 10.477-3.7812 11.875-9.1953l1.0273-4.8516c-2.3867-0.77344-5.5586-2.2969-7.6094-4.3672-4.625 4.1758-13.496 4.3516-18.367 3.5664l1.2109 5.7188c1.3867 5.3516 6.2734 9.1328 11.863 9.1328zm9.0859 10.836c-2.75-0.074219-4.9688-2.3242-4.9688-5.0938v-3.3555c-1.3203 0.37109-2.6914 0.61328-4.1172 0.61328-1.4258 0-2.7969-0.24219-4.1172-0.61328v3.3555c0 2.7188-2.1445 4.9297-4.8281 5.0781l1.2266 5.1016c0.39453 1.6406 1.8477 2.7852 3.5352 2.7852h8.5c1.6797 0 3.1328-1.1406 3.5312-2.7734l1.2422-5.1016zm7.8008 18.539h12.52c-0.035157-3.4258-2.8242-6.2031-6.2578-6.2031s-6.2266 2.7773-6.2578 6.2031zm-3.168 5.0312c0 1.125 0.91406 2.0352 2.0352 2.0352h14.785c1.1211 0 2.0312-0.91406 2.0312-2.0352s-0.91406-2.0312-2.0312-2.0312h-14.785c-1.125 0-2.0352 0.91406-2.0352 2.0312zm29.781 7.0703c0-1.1211-0.91406-2.0312-2.0352-2.0312l-82.922-0.007812c-1.125 0-2.0352 0.91406-2.0352 2.0312 0 1.125 0.91406 2.0352 2.0352 2.0352h82.93c1.125 0 2.0352-0.91406 2.0352-2.0352z"/>
<text x="0.0" y="117.5" font-size="5.0" font-weight="bold" font-family="Arbeit Regular, Helvetica, Arial-Unicode, Arial, Sans-serif" fill="#000000">Created by agus raharjo</text><text x="0.0" y="122.5" font-size="5.0" font-weight="bold" font-family="Arbeit Regular, Helvetica, Arial-Unicode, Arial, Sans-serif" fill="#000000">from Noun Project</text></svg>