<svg className = "w-6 h-6" xmlns="http://www.w3.org/2000/svg" xmlns:xlink="http://www.w3.org/1999/xlink" version="1.1" x="0px" y="0px" viewBox="0 0 100 125" enable-background="new 0 0 100 100" xml:space="preserve"><g><path d="M27.6,34.5c4.9,0,8.9-4,8.9-8.9c0-1.7-0.5-3.4-1.4-4.7v-6.4H19.9V21c-0.8,1.3-1.3,2.9-1.3,4.6   C18.7,30.5,22.7,34.5,27.6,34.5z M27.6,21.3c2.3,0,4.2,1.9,4.2,4.2s-1.9,4.2-4.2,4.2c-2.3,0-4.2-1.9-4.2-4.2S25.3,21.3,27.6,21.3z"/><path d="M89.8,57.8v-4.6h-1c-0.5-1.5-1.5-2.8-2.9-3.6C85.5,48,84.2,47,82.6,47c-1.6,0-2.9,1-3.3,2.5c-1.4,0.8-2.4,2.1-2.9,3.6h-1   v4.6H46.3V35.3h-14l-4.7,5.1l-4.7-5.1H9v22.5H5V95h90V57.8H89.8z M80,55c0-1.1,0.7-2.1,1.8-2.5l0.9-0.3l0.9,0.3   c1.1,0.4,1.8,1.4,1.8,2.5v1.6H80V55z M33.9,39.5h8.5v2.6H31.5L33.9,39.5z M26.1,47.8c0.8,0,1.5,0.7,1.5,1.6c0,0.9-0.7,1.6-1.5,1.6   c-0.8,0-1.5-0.7-1.5-1.6C24.7,48.6,25.3,47.8,26.1,47.8z M26.1,53.6c0.8,0,1.5,0.7,1.5,1.6c0,0.9-0.7,1.6-1.5,1.6   c-0.8,0-1.5-0.7-1.5-1.6C24.7,54.3,25.3,53.6,26.1,53.6z M12.8,39.5h8.5l2.4,2.6H12.8V39.5z M91,61.8v1.7H9v-1.7H91z M9,91V67.2h82   V91H9z"/><path d="M58.5,26.5c0,6.9,5.6,12.5,12.5,12.5s12.5-5.6,12.5-12.5C83.5,19.6,77.9,14,71,14S58.5,19.6,58.5,26.5z M71,17.8   c4.8,0,8.7,3.9,8.7,8.7s-3.9,8.7-8.7,8.7s-8.7-3.9-8.7-8.7S66.2,17.8,71,17.8z"/><path d="M71,28h4.6v-3h-3.1v-4.7h-3v6.2C69.5,27.3,70.2,28,71,28z"/><path d="M52.6,26.5c0,10.2,8.3,18.4,18.4,18.4s18.4-8.3,18.4-18.4S81.2,8,71,8c-0.8,0-1.5,0.7-1.5,1.5S70.2,11,71,11   c8.5,0,15.4,6.9,15.4,15.4S79.5,41.9,71,41.9S55.6,35,55.6,26.5c0-4.5,1.9-8.7,5.3-11.6l0.9,1.2c0.4,0.5,1.1,0.4,1.4-0.1l3-5.8   c0.3-0.6-0.2-1.3-0.9-1.2l-6.4,1c-0.6,0.1-0.9,0.8-0.5,1.3l0.8,1.2C54.9,15.9,52.6,21,52.6,26.5z"/></g></svg>