<svg className = "w-6 h-6" xmlns="http://www.w3.org/2000/svg" xmlns:xlink="http://www.w3.org/1999/xlink" version="1.1" x="0px" y="0px" viewBox="0 0 66 82.5" enable-background="new 0 0 66 66" xml:space="preserve"><g><path d="M30.0800724,14.0141039c-0.210022,0.039978-0.3699951,0.2199707-0.3900146,0.4299927l-1.2599487,11.710021   c-0.0200195,0.1599731,0.039978,0.3200073,0.1599731,0.4299927c0.0900269,0.0800171,0.210022,0.1300049,0.3400269,0.1300049   c0.0299683,0,0.0699463-0.0100098,0.0999756-0.0100098l2.3900146-0.5200195   c1.0000019-0.2099609,1.7899799-0.9500122,2.0700092-1.9299927l3.1599731-10.8999624   c0.0499878-0.1700439,0.0100098-0.3600464-0.1099854-0.4800415c-0.1199951-0.1300049-0.2999878-0.1900024-0.4700317-0.1499634   L30.0800724,14.0141039z"/><path d="M28.2900944,9.0440722l6.1799946-1.3299565l-4.4400043-5.0800171   c-0.6600342-0.7700195-1.6799927-1.1099854-2.6799927-0.9000244l-2.3900146,0.5100098   c-0.1500244,0.0400391-0.289978,0.1400146-0.3499756,0.2900391c-0.0599976,0.1499634-0.0500488,0.3200073,0.0299683,0.4599609   L28.2900944,9.0440722z"/><path d="M17.9000797,17.1041298l-0.6400146,4.3199463c-0.0458164,0.3673782,0.3123665,0.6558876,0.6000366,0.5599976   l1.6399536-0.3499756c0.1600342-0.0299683,0.3000488-0.1500244,0.3600464-0.3099976l1.2599487-3.289978   c1.2200317,0.539978,2.6000366,0.6900024,3.8900146,0.4099731l3.1099854-0.6400146   c0.0700073-0.0100098,0.1400146-0.0299683,0.210022-0.039978l0.3699951-3.4299917   c0.0499878-0.6400146,0.5499878-1.1799927,1.1900024-1.2999878l5.9700336-1.2900391   c0.0899658-0.0199585,0.1999512-0.0299683,0.3200073-0.0299683c0.4099731,0,0.8099976,0.1699829,1.0899658,0.4799805   c0.3499756,0.3499756,0.4899902,0.9100342,0.3400269,1.4400024l-0.6700439,2.3200073   c3.0700073-0.6600342,6.460022-1.4100342,10.4900513-2.3400269c1.5599976-0.3299561,2.9299927-1.2399902,3.8399658-2.5499878   c0.2999878-0.3999634,0.3200073-0.8800049,0.039978-1.3200073c-1.3999634-2.1799932-8.5999756-2.8499761-12.1599731-2.0100102   l-19.369997,4.1700444L17.89007,9.0741014c-0.1099854-0.1699829-0.3200073-0.25-0.5200195-0.210022l-2.4899893,0.5300293   c-0.1499634,0.0299683-0.2799683,0.1300049-0.3399658,0.2700195c-0.0700073,0.1399536-0.0700073,0.2999878-0.0100098,0.4400024   L17.9000797,17.1041298z M39.3601036,8.7141161c1.5799561-0.3400269,3.6099854-0.460022,5.7999878-0.210022l-5.2999878,1.1400146   c-0.6500244,0.1400146-1.2900391-0.1600342-1.6199951-0.6900024L39.3601036,8.7141161z"/><path d="M16.6100407,25.3137245h-0.999999v1c0.999999,0,0,0,0.999999,0V25.3137245z"/><path d="M15.9196119,16.5334511h-1v1c1,0,0,0,1,0V16.5334511z"/><path d="M23.8200016,28.3537636c0.2294922,0.4404297,0,0,0.2294922,0.4404297l0.8808594-0.4804688L24.45965,27.4338417   l-0.8798828,0.4804688L23.8200016,28.3537636z"/><path d="M18.6100407,26.3137245c1,0,0,0,1,0v-1h-1V26.3137245z"/><path d="M21.419611,26.4143105l0.4599609,0.1894531c0.4599609,0.1904297,0,0,0.4599609,0.1904297l0.3798828-0.9199219   l-0.4599609-0.1904297l-0.4599609-0.1894531L21.419611,26.4143105z"/><path d="M12.5797682,17.6838417l0.4804688-0.1396484l-0.2802734-0.9599609l-0.9599609,0.2792969   c0.2802734,0.9599609,0,0,0.2802734,0.9599609L12.5797682,17.6838417z"/><path d="M8.8297682,22.3039589l1-0.0800781l-0.0800781-0.9902344l-1,0.0800781l0.0400391,0.4902344   C8.8297682,22.3039589,8.7897291,21.8039589,8.8297682,22.3039589z"/><path d="M9.7799635,24.4338417l0.3496094,0.3603516c0.3398438,0.3701172,0,0,0.3398438,0.3701172l0.7304688-0.6904297   l-0.7001953-0.7294922L9.7799635,24.4338417z"/><path d="M10.459651,19.2141151l0.2900391-0.4101563l-0.8300781-0.5703125l-0.2792969,0.4101563l-0.2802734,0.4101563   c0.8203125,0.5703125,0,0,0.8203125,0.5703125L10.459651,19.2141151z"/><path d="M12.5602369,26.2141151l0.4892578,0.0595703c0.5,0.0605469,0,0,0.5,0.0605469l0.1201172-0.9902344l-0.9892578-0.1201172   L12.5602369,26.2141151z"/><path d="M59.2300987,34.2041054c-0.8600464-1.8200073-2.6900024-2.9899902-4.6900024-2.9899902H25.2897282v-0.6904297h-1v0.6904297   H6.2700758c-1.5899658,0-3.0200198,1.0799561-3.4799807,2.6199951C1.7600659,37.4541054,1.2500561,41.59412,1.2600659,45.7940712   h63.3099937L59.2300987,34.2041054z M13.0000563,43.0640907H4.9201002   c0.1699829-2.8200073,0.6199951-5.5999756,1.3299561-8.0999756h6.75V43.0640907z M26.6000919,43.0640907H17.64007v-8.0999756   h8.960022V43.0640907z M40.2000694,43.0640907h-8.9599628v-8.1199951h8.9599628V43.0640907z M44.8400841,34.9440956h9.7199707   c0.5800171,0,1.1400146,0.3599854,1.3900146,0.9000244l3.3300171,7.2199707H44.8400841V34.9440956z"/><path d="M1.2700757,46.7940712c0.0800171,3.8100586,0.5900269,7.4200439,1.5100096,10.4800415   c0.4400024,1.4799805,1.8499758,2.5100098,3.4299929,2.5100098h5.4000244c-0.0100098-0.1700439-0.0200195-0.3300171-0.0200195-0.5   c0-3.3300171,2.7199707-6.0400391,6.0499868-6.0400391c3.3400269,0,6.0499878,2.710022,6.0499878,6.0400391   c0,0.1699829-0.0099487,0.3299561-0.0199585,0.5h18.0100117c-0.0100098-0.1700439-0.0200195-0.3300171-0.0200195-0.5   c0-3.3300171,2.7199707-6.0400391,6.0599976-6.0400391c3.3300171,0,6.039978,2.710022,6.039978,6.0400391   c0,0.1699829-0.0100098,0.3299561-0.0199585,0.5h7.3999634c1.9899902,0,3.6000328-1.6100464,3.6000328-3.5900269v-9.4000244   H1.2700757z M63.7401085,54.9840736h-1.5100098c-0.7600098,0-1.3800049-0.6299438-1.3800049-1.3999634v-0.7700195   c0-0.7799683,0.6199951-1.4099731,1.3800049-1.4099731h1.5100098V54.9840736z"/><path d="M17.6443424,54.2392616c-2.7920523,0-5.0550528,2.2630005-5.0550528,5.0438232   c0,2.7921143,2.2630005,5.0438271,5.0550528,5.0438271c2.7808228,0,5.0438232-2.2517128,5.0438232-5.0438271   C22.6881657,56.5022621,20.4251652,54.2392616,17.6443424,54.2392616z M17.6451969,61.8273964   c-1.4091797,0-2.5556631-1.1416016-2.5556631-2.5439453s1.1464834-2.5439453,2.5556631-2.5439453   c1.4023438,0,2.5439453,1.1416016,2.5439453,2.5439453S19.0475407,61.8273964,17.6451969,61.8273964z"/><path d="M17.6451969,57.7395058c-0.8574219,0-1.5556641,0.6923828-1.5556641,1.5439453s0.6982422,1.5439453,1.5556641,1.5439453   c0.8515625,0,1.5439453-0.6923828,1.5439453-1.5439453S18.4967594,57.7395058,17.6451969,57.7395058z"/><path d="M47.7155113,57.7395058c-0.8574219,0-1.5556641,0.6923828-1.5556641,1.5439453s0.6982422,1.5439453,1.5556641,1.5439453   c0.8515625,0,1.5439453-0.6923828,1.5439453-1.5439453S48.5670738,57.7395058,47.7155113,57.7395058z"/><path d="M47.7153893,54.2392616c-2.7921143,0-5.0550537,2.2630005-5.0550537,5.0438232   c0,2.7921143,2.2629395,5.0438271,5.0550537,5.0438271c2.7808228,0,5.0438232-2.2517128,5.0438232-5.0438271   C52.7592125,56.5022621,50.496212,54.2392616,47.7153893,54.2392616z M47.7155113,61.8273964   c-1.4091797,0-2.5556641-1.1416016-2.5556641-2.5439453s1.1464844-2.5439453,2.5556641-2.5439453   c1.4023438,0,2.5439453,1.1416016,2.5439453,2.5439453S49.1178551,61.8273964,47.7155113,61.8273964z"/></g></svg>