<?xml version="1.0" encoding="UTF-8"?>
<svg version="1.1" xmlns="http://www.w3.org/2000/svg" width="50" height="38">
<path d="M0 0 C16.5 0 33 0 50 0 C50 12.54 50 25.08 50 38 C33.5 38 17 38 0 38 C0 25.46 0 12.92 0 0 Z " fill="#F9FBF9" transform="translate(0,0)"/>
<path d="M0 0 C0 1.98 0 3.96 0 6 C-0.99 6 -1.98 6 -3 6 C-3 6.66 -3 7.32 -3 8 C-4.32 8 -5.64 8 -7 8 C-6.3503125 8.77085938 -5.700625 9.54171875 -5.03125 10.3359375 C-4.1959375 11.33882812 -3.360625 12.34171875 -2.5 13.375 C-1.6646875 14.37273438 -0.829375 15.37046875 0.03125 16.3984375 C2 19 2 19 2 21 C-1.5371438 20.43867066 -2.99261679 19.30442253 -5.25 16.5625 C-5.77078125 15.94503906 -6.2915625 15.32757813 -6.828125 14.69140625 C-8 13 -8 13 -8 11 C-8.66 11 -9.32 11 -10 11 C-9.8125 9.1875 -9.8125 9.1875 -9 7 C-4.82142857 4 -4.82142857 4 -2 4 C-2 3.34 -2 2.68 -2 2 C-6.95 4.475 -6.95 4.475 -12 7 C-10.9957244 12.02137798 -10.60239038 12.86243419 -7 16 C-7.99730136 18.4932534 -8.65074531 19.77467439 -10.9375 21.25 C-13 22 -13 22 -16 22 C-16 21.34 -16 20.68 -16 20 C-14.68 19.34 -13.36 18.68 -12 18 C-12.28875 17.278125 -12.5775 16.55625 -12.875 15.8125 C-13.24625 14.884375 -13.6175 13.95625 -14 13 C-14.433125 12.175 -14.86625 11.35 -15.3125 10.5 C-16 8 -16 8 -15 5.375 C-10.75431444 0.3332484 -6.38246206 -0.38294772 0 0 Z " fill="#508F55" transform="translate(31,0)"/>
<path d="M0 0 C0.53625 0.350625 1.0725 0.70125 1.625 1.0625 C5.75950387 2.694541 9.83800519 1.12053706 14 0 C14 0.66 14 1.32 14 2 C18.21878192 2.19622241 21.17010894 1.80230168 25 0 C25.66 0.66 26.32 1.32 27 2 C29.57061311 2.64767793 29.57061311 2.64767793 32 3 C32 3.99 32 4.98 32 6 C31.37351563 5.91621094 30.74703125 5.83242188 30.1015625 5.74609375 C28.87566406 5.59333984 28.87566406 5.59333984 27.625 5.4375 C26.40683594 5.28087891 26.40683594 5.28087891 25.1640625 5.12109375 C22.95100814 4.81762672 22.95100814 4.81762672 21 6 C16.94857881 6.25860135 15.45662331 6.30441554 12 4 C11.46375 4.350625 10.9275 4.70125 10.375 5.0625 C7.2365758 6.30135166 5.23787556 5.77427459 2 5 C1.34 4.67 0.68 4.34 0 4 C-0.99 4.66 -1.98 5.32 -3 6 C-5.6875 5.625 -5.6875 5.625 -8 5 C-8 4.34 -8 3.68 -8 3 C-6.865625 2.690625 -5.73125 2.38125 -4.5625 2.0625 C-1.21224901 1.37075469 -1.21224901 1.37075469 0 0 Z " fill="#4B8C51" transform="translate(12,31)"/>
<path d="M0 0 C2.06035444 0.42628023 4.01053784 1.00362238 6 1.6875 C8.06645046 2.20841281 8.06645046 2.20841281 10 1 C12 0 12 0 14.0625 0.3125 C14.701875 0.539375 15.34125 0.76625 16 1 C19.05408341 2.35386676 19.05408341 2.35386676 22.3125 0.875 C26 0 26 0 29.4375 1.375 C30.7059375 2.179375 30.7059375 2.179375 32 3 C32 3.66 32 4.32 32 5 C30.88625 4.814375 29.7725 4.62875 28.625 4.4375 C25.17431139 3.68319343 25.17431139 3.68319343 23 5 C19.32670036 5.13357453 16.50147041 5.1671568 13 4 C12.01 4.495 12.01 4.495 11 5 C7.32670036 5.13357453 4.50147041 5.1671568 1 4 C0.01 4.495 0.01 4.495 -1 5 C-2.99960012 5.039992 -5.00047242 5.04346799 -7 5 C-7 4.34 -7 3.68 -7 3 C-5.5459375 2.5359375 -5.5459375 2.5359375 -4.0625 2.0625 C-1.15934208 1.30476658 -1.15934208 1.30476658 0 0 Z " fill="#498A4E" transform="translate(11,24)"/>
<path d="M0 0 C2.5625 0.25 2.5625 0.25 5.5625 2.25 C5.96555767 5.40728506 6.05470789 7.40230863 4.4375 10.1875 C2.5625 11.25 2.5625 11.25 -0.5 11.125 C-3.4375 10.25 -3.4375 10.25 -5.4375 7.25 C-5.04242262 3.20045681 -4.49258331 0.46077778 0 0 Z " fill="#5D9762" transform="translate(36.4375,6.75)"/>
<path d="M0 0 C2.97 0.99 5.94 1.98 9 3 C9 3.99 9 4.98 9 6 C8.06027344 5.87431641 8.06027344 5.87431641 7.1015625 5.74609375 C5.87566406 5.59333984 5.87566406 5.59333984 4.625 5.4375 C3.40683594 5.28087891 3.40683594 5.28087891 2.1640625 5.12109375 C-0.04899186 4.81762672 -0.04899186 4.81762672 -2 6 C-3.99960012 6.039992 -6.00047242 6.04346799 -8 6 C-7.4225 5.7525 -6.845 5.505 -6.25 5.25 C-3.6997003 3.83316683 -1.98214299 2.12372463 0 0 Z " fill="#549159" transform="translate(35,31)"/>
<path d="M0 0 C2.625 0.1875 2.625 0.1875 5.625 2.1875 C5.625 3.5075 5.625 4.8275 5.625 6.1875 C4.965 6.1875 4.305 6.1875 3.625 6.1875 C2.965 5.1975 2.305 4.2075 1.625 3.1875 C-0.76064077 3.76334432 -3.04182784 4.40977595 -5.375 5.1875 C-2.97870697 0.23516108 -2.97870697 0.23516108 0 0 Z " fill="#408546" transform="translate(36.375,6.8125)"/>
<path d="M0 0 C0.66 0.33 1.32 0.66 2 1 C2 1.66 2 2.32 2 3 C0.71086513 3.67154933 -0.58140204 4.33708859 -1.875 5 C-2.59429688 5.37125 -3.31359375 5.7425 -4.0546875 6.125 C-6 7 -6 7 -8 7 C-6.89300099 3.78970286 -5.98396175 2.99031023 -3 1.1875 C-1.515 0.5996875 -1.515 0.5996875 0 0 Z " fill="#59955E" transform="translate(24,0)"/>
<path d="M0 0 C1.98 0.495 1.98 0.495 4 1 C3.67 2.65 3.34 4.3 3 6 C1.68 5.67 0.36 5.34 -1 5 C-0.67 3.35 -0.34 1.7 0 0 Z " fill="#F7FAF7" transform="translate(35,9)"/>
<path d="M0 0 C0.66 0.33 1.32 0.66 2 1 C2 1.99 2 2.98 2 4 C-1.4019487 6.09350689 -4.05272412 6.17942163 -8 6 C-7.4225 5.7525 -6.845 5.505 -6.25 5.25 C-3.6997003 3.83316683 -1.98214299 2.12372463 0 0 Z " fill="#679E6B" transform="translate(35,31)"/>
<path d="M0 0 C0.66 0 1.32 0 2 0 C2.33 1.65 2.66 3.3 3 5 C3.66 5 4.32 5 5 5 C5 5.66 5 6.32 5 7 C2.5625 6.25 2.5625 6.25 0 5 C-0.875 2.9375 -0.875 2.9375 -1 1 C-0.67 0.67 -0.34 0.34 0 0 Z " fill="#508F56" transform="translate(32,11)"/>
<path d="M0 0 C2.625 0.9375 2.625 0.9375 5 2 C4.67 2.66 4.34 3.32 4 4 C1.69 4 -0.62 4 -3 4 C-2.67 3.01 -2.34 2.02 -2 1 C-1.34 0.67 -0.68 0.34 0 0 Z " fill="#F1F6F2" transform="translate(12,34)"/>
<path d="M0 0 C1.84765625 0.33984375 1.84765625 0.33984375 4.0625 0.9375 C5.16271484 1.22947266 5.16271484 1.22947266 6.28515625 1.52734375 C7.13400391 1.76130859 7.13400391 1.76130859 8 2 C7.67 2.66 7.34 3.32 7 4 C2.44615385 4.36923077 2.44615385 4.36923077 0.1875 2.5 C-0.4003125 1.7575 -0.4003125 1.7575 -1 1 C-0.67 0.67 -0.34 0.34 0 0 Z " fill="#428648" transform="translate(24,32)"/>
<path d="M0 0 C2 1 2 1 2 1 Z M-2 1 C-1.34 1.33 -0.68 1.66 0 2 C-0.33 2.99 -0.66 3.98 -1 5 C-2.98 5.33 -4.96 5.66 -7 6 C-5.35 4.35 -3.7 2.7 -2 1 Z " fill="#5E9863" transform="translate(24,31)"/>
</svg>
