<svg xmlns="http://www.w3.org/2000/svg" viewBox="0 0 64 80" x="0px" y="0px"><title>guest amenities</title><path d="M62,21H56.83a7,7,0,0,0-13.66,0H39.46l3.68-4.18a2,2,0,0,0-1.5-3.32H22A7.49,7.49,0,0,0,7,13.5H2A2,2,0,0,0,.5,16.82L19.82,38.76V51H12.45a2,2,0,0,0,0,4H31.2a2,2,0,1,0,0-4H23.82V38.75l4.88-5.53,11.48,13V58.5H32.8a2,2,0,1,0,0,4H51.55a2,2,0,0,0,0-4H44.18V46.26L63.5,24.32A2,2,0,0,0,62,21ZM22.36,21a2,2,0,0,0-1.5,3.32L23.22,27H14.8L6.43,17.5H37.21L34.13,21ZM49.64,34H34.72l-7.93-9H43.47a7,7,0,0,0,13.06,0h1Z"/><path d="M9,7.5a2,2,0,0,0,1.79-2.89l-1-2A2,2,0,1,0,6.21,4.39l1,2A2,2,0,0,0,9,7.5Z"/><path d="M47,15.5a2,2,0,0,0,1.79-2.89l-1-2a2,2,0,1,0-3.58,1.78l1,2A2,2,0,0,0,47,15.5Z"/><text x="0" y="79" fill="#000000" font-size="5px" font-weight="bold" font-family="'Helvetica Neue', Helvetica, Arial-Unicode, Arial, Sans-serif">Created by Lagot Design</text><text x="0" y="84" fill="#000000" font-size="5px" font-weight="bold" font-family="'Helvetica Neue', Helvetica, Arial-Unicode, Arial, Sans-serif">from the Noun Project</text></svg>