<svg xmlns="http://www.w3.org/2000/svg" viewBox="0 0 64 80" x="0px" y="0px"><title>guest amenities</title><path d="M21.3.23a9,9,0,0,0-9,8.64L12,17a9.32,9.32,0,0,0,7.32,9.5v5.9a5.11,5.11,0,0,0-3.11,4.52l-.73,21a5.75,5.75,0,0,0,1.63,4.28,5.85,5.85,0,0,0,10.06-4.28l-.74-21a5.08,5.08,0,0,0-3.11-4.51v-5.9a9.32,9.32,0,0,0,7.32-9.44l-.29-8.15A9,9,0,0,0,21.3.23Zm4.15,21.2a5.8,5.8,0,0,1-10-4.27L15.83,9a5.48,5.48,0,0,1,11,0l.29,8.15A5.76,5.76,0,0,1,25.45,21.43Z"/><path d="M49.35.24A1.75,1.75,0,0,0,47.69,2.1l.82,15.1a5.78,5.78,0,0,1-3.79,5.64V2a2,2,0,0,0-4,0V22.84a5.81,5.81,0,0,1-3.79-5.67l.74-15.08A1.75,1.75,0,0,0,36,.24a1.77,1.77,0,0,0-1.85,1.67L33.4,17a9.32,9.32,0,0,0,7.32,9.5v5.9a5.12,5.12,0,0,0-3.12,4.52l-.73,21a5.85,5.85,0,0,0,10.06,4.28,5.75,5.75,0,0,0,1.63-4.28l-.73-21a5.1,5.1,0,0,0-3.11-4.51v-5.9A9.32,9.32,0,0,0,52,17L51.21,1.9A1.75,1.75,0,0,0,49.35.24Z"/><text x="0" y="79" fill="#000000" font-size="5px" font-weight="bold" font-family="'Helvetica Neue', Helvetica, Arial-Unicode, Arial, Sans-serif">Created by Lagot Design</text><text x="0" y="84" fill="#000000" font-size="5px" font-weight="bold" font-family="'Helvetica Neue', Helvetica, Arial-Unicode, Arial, Sans-serif">from the Noun Project</text></svg>