<svg version="1.0" xmlns="http://www.w3.org/2000/svg" width="62.000000pt" height="96.000000pt" viewBox="0 0 62.000000 96.000000"preserveAspectRatio="xMidYMid meet"><g transform="translate(0.000000,96.000000) scale(0.100000,-0.100000)" fill="#000000" stroke="none"> <path d="M216 874 c-3 -9 -6 -78 -6 -155 l0 -139 -34 0 c-48 0 -83 -15 -91 -40 -5 -16 -8 -232 -5 -352 0 -28 37 -58 70 -58 23 0 30 -4 30 -20 0 -14 7 -20 21 -20 12 0 23 8 26 20 5 18 14 20 79 20 67 0 74 -2 74 -20 0 -27 40 -27 47 0 4 13 14 20 31 20 14 0 35 11 49 26 23 25 24 29 23 201 -2 162 -3 177 -23 199 -16 19 -30 24 -69 24 l-49 0 2 144 c1 79 -1 148 -5 155 -4 7 -38 11 -86 11 -62 0 -79 -3 -84 -16z m130 -281 c-3 -8 -22 -13 -46 -13 l-40 0 0 129 0 130 43 3 42 3 3 -119 c1 -66 0 -126 -2 -133z m129 -238 l0 -170 -169 -3 c-129 -2 -171 1 -178 10 -9 15 -11 282 -2 316 6 22 7 22 178 20 l171 -3 0 -170z"/> <path d="M187 444 c-4 -4 -7 -16 -7 -26 0 -17 9 -18 123 -16 114 3 122 4 122 23 0 19 -8 20 -116 23 -63 1 -118 -1 -122 -4z"/> <path d="M182 288 c3 -22 6 -23 123 -23 113 0 120 1 120 20 0 19 -8 20 -123 23 l-123 3 3 -23z"/> </g> </svg>
