<svg version="1.0" xmlns="http://www.w3.org/2000/svg" width="64.000000pt" height="94.000000pt" viewBox="0 0 64.000000 94.000000" preserveAspectRatio="xMidYMid meet"><g transform="translate(0.000000,94.000000) scale(0.100000,-0.100000)" fill="#000000" stroke="none"> <path d="M192 888 c-7 -7 -12 -31 -12 -55 l0 -43 -44 0 c-28 0 -52 -7 -67 -19 l-24 -19 -2 -284 c-3 -273 -2 -285 18 -306 20 -22 32 -26 81 -22 22 1 30 -4 38 -24 5 -14 16 -26 24 -26 16 0 29 27 20 41 -3 5 28 9 71 9 72 0 76 -1 85 -26 12 -31 44 -29 48 3 3 20 9 22 47 21 35 -2 48 2 64 21 20 23 21 36 21 305 0 155 -4 286 -8 292 -13 19 -50 34 -86 34 -36 0 -36 0 -36 43 0 24 -5 48 -12 55 -16 16 -210 16 -226 0z m188 -68 l0 -30 -75 0 -75 0 0 30 0 30 75 0 75 0 0 -30z m125 -360 l0 -275 -194 -3 c-134 -2 -198 1 -207 9 -11 9 -14 62 -14 264 0 140 3 261 6 269 6 14 31 16 208 14 l201 -3 0 -275z"/> <path d="M187 634 c-4 -4 -7 -16 -7 -26 0 -17 9 -18 123 -16 114 3 122 4 122 23 0 19 -8 20 -116 23 -63 1 -118 -1 -122 -4z"/> <path d="M187 483 c-4 -3 -7 -15 -7 -25 0 -16 10 -18 120 -18 101 0 122 3 127 16 3 9 0 20 -8 25 -16 10 -222 12 -232 2z"/> <path d="M184 331 c-7 -7 -4 -41 4 -41 4 -1 56 -2 116 -2 91 -1 112 1 120 15 6 9 7 19 4 23 -8 7 -237 12 -244 5z"/> </g> </svg>
