<svg className = "w-6 h-6" xmlns="http://www.w3.org/2000/svg" data-name="Layer 1" viewBox="0 0 100 125" x="0px" y="0px"><defs><style>.cls-1{fill-rule:evenodd;}</style></defs><path class="cls-1" d="M60.034,75.827H39.966A1.364,1.364,0,0,1,38.6,74.464v-9.87H33.2V85.836h5.4V79.887a1.364,1.364,0,0,1,1.364-1.364H60.034A1.364,1.364,0,0,1,61.4,79.887v5.949h5.4V64.594H61.4v9.87a1.364,1.364,0,0,1-1.364,1.363ZM41.33,73.1V64.594H58.67V73.1ZM30.619,56.187H69.381L63.84,28.674H36.16L30.619,56.187Zm-1.66,2.727a1.36,1.36,0,0,1-1.307-1.755l6.066-30.115a1.358,1.358,0,0,1,1.332-1.092v-.005h29.9a1.364,1.364,0,0,1,1.356,1.216l6.041,30a1.359,1.359,0,0,1-1.306,1.755Zm-4.189,15V71.2H13.978a1.364,1.364,0,0,1-1.364-1.364V51.551H8.573c-.384,0-.845.211-.845.456v18a3.5,3.5,0,0,0,1.378,2.672,5.75,5.75,0,0,0,3.653,1.233Zm-9.429-16.2V50.188a1.364,1.364,0,0,0-1.363-1.364H12.723V36.293c0-.245.461-.456.845-.456H17.61V54.122a1.364,1.364,0,0,0,1.363,1.364h2.256L20.683,58.2H17.755a6.139,6.139,0,0,1-2.414-.483Zm5-19.789a6.172,6.172,0,0,0,1.757.249h2.622l.546-2.712H23.313A1.364,1.364,0,0,1,21.949,34.1V15.814H17.908c-.384,0-.845.211-.845.456V33.11h1.91a1.364,1.364,0,0,1,1.364,1.364v3.452ZM24.166,40.9,21.778,52.759H20.337V40.729a20.1,20.1,0,0,0,3.829.173ZM75.23,71.2v2.712H87.241a5.752,5.752,0,0,0,3.653-1.233,3.5,3.5,0,0,0,1.378-2.672v-18c0-.245-.461-.456-.845-.456H87.386V69.836A1.364,1.364,0,0,1,86.022,71.2Zm4.087-13-.546-2.712h2.256a1.364,1.364,0,0,0,1.363-1.364V35.837h4.042c.384,0,.845.211.845.456V48.824H86.022a1.364,1.364,0,0,0-1.363,1.364v7.527a6.139,6.139,0,0,1-2.414.483Zm.346-17.469v12.03H78.222L75.834,40.9a20.1,20.1,0,0,0,3.829-.173Zm-4.379-2.554h2.622a6.177,6.177,0,0,0,1.757-.249V34.474a1.364,1.364,0,0,1,1.364-1.364h1.91V16.27c0-.245-.461-.456-.845-.456H78.051V34.1a1.364,1.364,0,0,1-1.364,1.364H74.738l.546,2.712Zm-2.417,1.756,2.888,14.337a1.352,1.352,0,0,0,.05.247l1.046,5.193a1.429,1.429,0,0,0,.049.246l.386,1.913H22.714l.386-1.913a1.41,1.41,0,0,0,.049-.246L24.2,54.514a1.331,1.331,0,0,0,.05-.245L27.133,39.93a1.381,1.381,0,0,0,.049-.245l1.046-5.194a1.331,1.331,0,0,0,.05-.245l2.266-11.252H69.456l3.411,16.937ZM57.517,20.266V13.082a2.31,2.31,0,0,0-2.3-2.3H44.782a2.309,2.309,0,0,0-2.3,2.3v7.184Zm-17.761,0V13.082a5.038,5.038,0,0,1,5.026-5.027H55.217a5.038,5.038,0,0,1,5.027,5.027v7.184H70.567a1.363,1.363,0,0,1,1.355,1.217l2.267,11.253h1.135V14.451a1.364,1.364,0,0,1,1.363-1.364h5.405a3.409,3.409,0,0,1,3.572,3.183V33.11h.768A3.409,3.409,0,0,1,90,36.293V48.824c1.461,0,2.646-.14,3.846.849A3.015,3.015,0,0,1,95,52.007v18c0,3.909-3.8,6.632-7.758,6.632H84.333v8.2l3.224-2.063a1.358,1.358,0,1,1,1.459,2.29L85.682,87.2l3.838,1.919a1.358,1.358,0,0,1-1.215,2.429l-5.287-2.644L78.6,91.732a1.358,1.358,0,0,1-1.459-2.291l3.045-1.949-3.722-1.861A1.358,1.358,0,1,1,77.682,83.2l3.923,1.961V76.639H73.866A1.363,1.363,0,0,1,72.5,75.276v-5.44a1.363,1.363,0,0,1,1.363-1.363H84.659V60.6a8.923,8.923,0,0,1-2.414.33H79.867c.07.347.442,2.055.442,2.306a1.363,1.363,0,0,1-1.363,1.363H69.523V87.2a1.363,1.363,0,0,1-1.363,1.363H60.034A1.364,1.364,0,0,1,58.67,87.2V81.251H41.33V87.2a1.364,1.364,0,0,1-1.364,1.363H31.84A1.363,1.363,0,0,1,30.477,87.2V64.594H21.054a1.36,1.36,0,0,1-1.306-1.755l.385-1.914H17.755a8.917,8.917,0,0,1-2.414-.33v7.878H26.134A1.363,1.363,0,0,1,27.5,69.836v5.44a1.363,1.363,0,0,1-1.363,1.363h-7.74v8.525L22.318,83.2a1.358,1.358,0,1,1,1.215,2.428l-3.722,1.861,3.045,1.949A1.358,1.358,0,0,1,21.4,91.732l-4.415-2.826L11.7,91.55a1.358,1.358,0,0,1-1.215-2.429L14.318,87.2l-3.334-2.134a1.358,1.358,0,1,1,1.459-2.29l3.224,2.063v-8.2H12.759C8.8,76.639,5,73.916,5,70.007v-18a3.409,3.409,0,0,1,3.572-3.183H10V36.293a3.409,3.409,0,0,1,3.572-3.183h.768V16.27a3.408,3.408,0,0,1,3.572-3.183h5.4a1.364,1.364,0,0,1,1.363,1.364V32.736h1.135L28.1,21.364a1.358,1.358,0,0,1,1.331-1.092v-.006Z"/></svg>