<svg className = "w-6 h-6" xmlns="http://www.w3.org/2000/svg" viewBox="0 0 32 40" x="0px" y="0px"><g data-name="Layer 39"><path d="M23,14.29a4.44,4.44,0,0,1-7,0,4.44,4.44,0,0,1-7,0A4.46,4.46,0,0,1,5.5,16,4.23,4.23,0,0,1,5,16V27a1,1,0,0,0,1,1H9V20a1,1,0,0,1,1-1h4a1,1,0,0,1,1,1v8H26a1,1,0,0,0,1-1V16a4.23,4.23,0,0,1-.5.05A4.46,4.46,0,0,1,23,14.29ZM23,23a1,1,0,0,1-1,1H19a1,1,0,0,1-1-1V20a1,1,0,0,1,1-1h3a1,1,0,0,1,1,1Z"/><path d="M10,11.5a2.5,2.5,0,0,0,5,0V4H12L10,9Z"/><path d="M8,11.5V9l2-5H8a2,2,0,0,0-1.56.75l-3,3.7A2,2,0,0,0,3,9.7v1.66A2.6,2.6,0,0,0,5.24,14,2.5,2.5,0,0,0,8,11.5Z"/><path d="M19.5,14A2.5,2.5,0,0,0,22,11.5V9L20,4H17v7.5A2.5,2.5,0,0,0,19.5,14Z"/><path d="M28.56,8.45l-3-3.7A2,2,0,0,0,24,4H22l2,5v2.5A2.5,2.5,0,0,0,26.76,14,2.6,2.6,0,0,0,29,11.36V9.7A2,2,0,0,0,28.56,8.45Z"/></g></svg>