<svg className = "w-6 h-6" xmlns="http://www.w3.org/2000/svg" xmlns:xlink="http://www.w3.org/1999/xlink" version="1.1" x="0px" y="0px" viewBox="0 0 512 640" enable-background="new 0 0 512 512" xml:space="preserve"><g><g><g><path d="M367.643,428.89c-51.459,0-93.326-41.864-93.326-93.323c0-51.46,41.867-93.325,93.326-93.325     s93.324,41.865,93.324,93.325C460.967,387.025,419.102,428.89,367.643,428.89z M367.643,257.241     c-43.189,0-78.326,35.137-78.326,78.325c0,43.188,35.137,78.323,78.326,78.323s78.324-35.136,78.324-78.323     C445.967,292.378,410.832,257.241,367.643,257.241z"/></g><g><path d="M367.643,454.712c-65.697,0-119.148-53.45-119.148-119.148c0-65.696,53.451-119.145,119.148-119.145     c65.699,0,119.148,53.448,119.148,119.145C486.791,401.262,433.342,454.712,367.643,454.712z M367.643,231.419     c-57.428,0-104.148,46.719-104.148,104.145c0,57.428,46.721,104.148,104.148,104.148s104.148-46.721,104.148-104.148     C471.791,278.138,425.07,231.419,367.643,231.419z"/></g><g><path d="M367.643,454.702c-4.143,0-7.5-3.357-7.5-7.5v-25.818c0-4.143,3.357-7.5,7.5-7.5s7.5,3.357,7.5,7.5v25.818     C375.143,451.345,371.785,454.702,367.643,454.702z"/></g><g><path d="M367.643,257.246c-4.143,0-7.5-3.357-7.5-7.5v-25.819c0-4.142,3.357-7.5,7.5-7.5s7.5,3.358,7.5,7.5v25.819     C375.143,253.889,371.785,257.246,367.643,257.246z"/></g><g><path d="M281.814,343.063h-25.809c-4.142,0-7.5-3.357-7.5-7.5s3.358-7.5,7.5-7.5h25.809c4.143,0,7.5,3.357,7.5,7.5     S285.957,343.063,281.814,343.063z"/></g><g><path d="M479.279,343.063h-25.811c-4.143,0-7.5-3.357-7.5-7.5s3.357-7.5,7.5-7.5h25.811c4.143,0,7.5,3.357,7.5,7.5     S483.422,343.063,479.279,343.063z"/></g><g><path d="M306.953,282.378c-1.92,0-3.838-0.732-5.303-2.197l-18.146-18.148c-2.512-2.406-3.084-6.323-1.168-9.389     c2.197-3.512,6.818-4.582,10.33-2.387l0.008,0.005c0.482,0.301,0.928,0.655,1.33,1.057l18.254,18.257     c2.928,2.929,2.928,7.678-0.002,10.606C310.793,281.646,308.873,282.378,306.953,282.378z"/></g><g><path d="M446.592,422.014c-1.99,0-3.963-0.788-5.418-2.312l-18.146-18.146c-2.93-2.929-2.93-7.678,0-10.606     c2.93-2.93,7.678-2.929,10.605-0.001l18.256,18.254c0.195,0.196,0.381,0.402,0.553,0.618c2.588,3.234,2.068,7.959-1.166,10.547     C449.891,421.476,448.234,422.014,446.592,422.014z"/></g><g><path d="M428.33,282.378c-1.918,0-3.838-0.732-5.303-2.196c-2.93-2.929-2.93-7.678,0-10.606l18.254-18.257     c0.402-0.401,0.848-0.756,1.33-1.057c3.514-2.195,8.145-1.13,10.338,2.382c1.93,3.088,1.342,7.035-1.215,9.436l-18.1,18.102     C432.17,281.646,430.25,282.378,428.33,282.378z"/></g><g><path d="M288.688,422.01c-1.643,0-3.295-0.536-4.678-1.642c-3.234-2.588-3.762-7.303-1.174-10.537l0.008-0.01     c0.172-0.216,0.357-0.422,0.553-0.618l18.254-18.254c2.93-2.928,7.678-2.928,10.607,0c2.928,2.93,2.928,7.678,0,10.607     l-18.189,18.189C292.615,421.237,290.66,422.01,288.688,422.01z"/></g><g><g><path d="M367.643,386.335c-17.777,0-32.24-13.07-32.24-29.136c0-4.143,3.357-7.5,7.5-7.5s7.5,3.357,7.5,7.5      c0,7.795,7.734,14.136,17.24,14.136s17.24-6.341,17.24-14.136s-7.734-14.136-17.24-14.136c-17.777,0-32.24-13.069-32.24-29.135      s14.463-29.136,32.24-29.136s32.24,13.07,32.24,29.136c0,4.143-3.357,7.5-7.5,7.5s-7.5-3.357-7.5-7.5      c0-7.795-7.734-14.136-17.24-14.136s-17.24,6.341-17.24,14.136c0,7.794,7.734,14.135,17.24,14.135      c17.777,0,32.24,13.07,32.24,29.136S385.42,386.335,367.643,386.335z"/></g><g><path d="M367.643,398.986c-4.143,0-7.5-3.357-7.5-7.5V279.646c0-4.143,3.357-7.5,7.5-7.5s7.5,3.357,7.5,7.5v111.841      C375.143,395.629,371.785,398.986,367.643,398.986z"/></g></g></g><g><g><g><path d="M144.357,269.757c-51.459,0-93.325-41.863-93.325-93.32c0-51.46,41.866-93.326,93.325-93.326      s93.325,41.866,93.325,93.326C237.682,227.894,195.817,269.757,144.357,269.757z M144.357,98.11      c-43.188,0-78.325,35.137-78.325,78.326c0,43.187,35.137,78.32,78.325,78.32s78.325-35.134,78.325-78.32      C222.682,133.247,187.546,98.11,144.357,98.11z"/></g><g><path d="M144.357,295.581c-65.698,0-119.148-53.449-119.148-119.148c0-65.696,53.45-119.145,119.148-119.145      s119.148,53.448,119.148,119.145C263.506,242.132,210.056,295.581,144.357,295.581z M144.357,72.288      c-57.427,0-104.148,46.719-104.148,104.145c0,57.428,46.721,104.148,104.148,104.148s104.148-46.721,104.148-104.148      C248.505,119.007,201.785,72.288,144.357,72.288z"/></g><g><path d="M144.357,295.569c-4.142,0-7.5-3.357-7.5-7.5v-25.816c0-4.143,3.358-7.5,7.5-7.5s7.5,3.357,7.5,7.5v25.816      C151.857,292.212,148.5,295.569,144.357,295.569z"/></g><g><path d="M144.357,98.114c-4.142,0-7.5-3.357-7.5-7.5V64.796c0-4.143,3.358-7.5,7.5-7.5s7.5,3.357,7.5,7.5v25.818      C151.857,94.757,148.5,98.114,144.357,98.114z"/></g><g><path d="M58.529,183.933H32.721c-4.142,0-7.5-3.357-7.5-7.5c0-4.142,3.358-7.5,7.5-7.5h25.808c4.142,0,7.5,3.358,7.5,7.5      C66.029,180.575,62.671,183.933,58.529,183.933z"/></g><g><path d="M255.995,183.933h-25.811c-4.142,0-7.5-3.357-7.5-7.5c0-4.142,3.358-7.5,7.5-7.5h25.811c4.142,0,7.5,3.358,7.5,7.5      C263.494,180.575,260.137,183.933,255.995,183.933z"/></g><g><path d="M83.668,123.247c-1.919,0-3.839-0.732-5.304-2.197L60.218,102.9c-2.512-2.406-3.084-6.322-1.168-9.388      c2.196-3.513,6.818-4.584,10.331-2.388l0.008,0.005c0.481,0.301,0.927,0.655,1.329,1.057l18.255,18.257      c2.929,2.93,2.928,7.679,0,10.607C87.507,122.515,85.588,123.247,83.668,123.247z"/></g><g><path d="M218.005,260.688l-18.263-18.261c-2.929-2.93-2.929-7.678,0-10.607c2.93-2.929,7.677-2.929,10.607,0l18.255,18.253      L218.005,260.688z"/></g><g><path d="M205.045,123.247c-1.919,0-3.838-0.732-5.303-2.196c-2.929-2.929-2.929-7.678,0-10.607l18.255-18.257      c0.401-0.401,0.847-0.756,1.329-1.057c3.513-2.194,8.144-1.13,10.339,2.383c1.93,3.087,1.341,7.034-1.215,9.435l-18.1,18.103      C208.885,122.515,206.965,123.247,205.045,123.247z"/></g><g><path d="M65.408,262.878c-1.919,0-3.838-0.731-5.301-2.195c-2.929-2.929-2.933-7.673-0.004-10.602l18.263-18.262      c2.929-2.928,7.677-2.929,10.607,0c2.929,2.93,2.928,7.678,0,10.607L70.717,260.68      C69.251,262.145,67.329,262.878,65.408,262.878z"/></g></g><g><g><path d="M153.587,236.456c-22.226,0-41.48-18.672-46.823-45.408c-0.95-4.739-1.432-9.656-1.432-14.612      c0-4.957,0.482-9.875,1.433-14.616c5.341-26.732,24.596-45.405,46.822-45.405c14.08,0,27.4,7.559,36.545,20.737      c2.362,3.403,1.517,8.076-1.886,10.438c-3.404,2.363-8.076,1.518-10.438-1.886c-6.302-9.081-15.13-14.289-24.222-14.289      c-14.985,0-28.19,13.714-32.114,33.35c-0.757,3.777-1.141,7.702-1.141,11.672c0,3.968,0.384,7.894,1.14,11.669      c3.925,19.639,17.13,33.352,32.115,33.352c9.095,0,17.923-5.209,24.22-14.291c2.36-3.404,7.033-4.251,10.437-1.89      c3.404,2.359,4.25,7.032,1.89,10.437C180.993,228.896,167.672,236.456,153.587,236.456z"/></g><g><g><path d="M140.745,170.792h-36.001c-4.142,0-7.5-3.358-7.5-7.5c0-4.143,3.358-7.5,7.5-7.5h36.001c4.142,0,7.5,3.357,7.5,7.5       C148.245,167.434,144.887,170.792,140.745,170.792z"/></g><g><path d="M140.745,197.078h-36.001c-4.142,0-7.5-3.357-7.5-7.5c0-4.142,3.358-7.5,7.5-7.5h36.001c4.142,0,7.5,3.358,7.5,7.5       C148.245,193.721,144.887,197.078,140.745,197.078z"/></g></g></g></g><g><g><g><path d="M103.322,370.431c-1.919,0-3.839-0.732-5.303-2.196c-2.929-2.929-2.929-7.678,0-10.606l25.966-25.967      c2.929-2.93,7.678-2.929,10.606-0.001c2.929,2.929,2.929,7.678,0,10.606l-25.966,25.967      C107.161,369.698,105.241,370.431,103.322,370.431z"/></g><g><path d="M157.466,372.643c-1.919,0-3.839-0.732-5.303-2.196l-28.179-28.179c-2.929-2.93-2.929-7.678,0-10.607      c2.929-2.928,7.678-2.928,10.606,0l28.179,28.179c2.929,2.93,2.929,7.678,0,10.607      C161.305,371.91,159.386,372.643,157.466,372.643z"/></g><g><path d="M185.843,427.65h-35.27c-15.87,0-28.781-12.915-28.781-28.79v-61.896c0-4.143,3.358-7.5,7.5-7.5s7.5,3.357,7.5,7.5      v61.896c0,7.604,6.182,13.79,13.781,13.79h35.27c4.142,0,7.5,3.357,7.5,7.5S189.985,427.65,185.843,427.65z"/></g></g><g><g><path d="M389.949,170.471c-1.92,0-3.84-0.732-5.305-2.197c-2.928-2.929-2.928-7.678,0-10.606l25.965-25.965      c2.93-2.929,7.678-2.929,10.607,0s2.93,7.678,0,10.606l-25.965,25.965C393.787,169.738,391.867,170.471,389.949,170.471z"/></g><g><path d="M389.949,170.471c-1.92,0-3.84-0.732-5.305-2.197l-28.178-28.179c-2.93-2.929-2.93-7.678,0-10.606s7.678-2.929,10.607,0      l28.178,28.179c2.93,2.929,2.93,7.678,0,10.606C393.787,169.738,391.867,170.471,389.949,170.471z"/></g><g><path d="M389.945,170.472c-4.143,0-7.5-3.358-7.5-7.5v-61.896c0-7.604-6.184-13.791-13.783-13.791h-35.27      c-4.143,0-7.5-3.357-7.5-7.5c0-4.142,3.357-7.5,7.5-7.5h35.27c15.871,0,28.783,12.916,28.783,28.791v61.896      C397.445,167.113,394.088,170.472,389.945,170.472z"/></g></g></g></g></svg>