<svg xmlns="http://www.w3.org/2000/svg" viewBox="0 0 64 80" x="0px" y="0px"><title>guest amenities</title><path d="M19.94,26.81v9.27a4.41,4.41,0,0,0,4.2,4.6,1.38,1.38,0,0,0,.2,0V50.92A5.27,5.27,0,0,0,27.82,56a1.93,1.93,0,0,0-1.23.57,2,2,0,0,0,0,2.82l4,4a2,2,0,0,0,2.82,0l4-4A2,2,0,0,0,36.19,56a5.29,5.29,0,0,0,3.47-5.1V40.65a1.38,1.38,0,0,0,.2,0,4.41,4.41,0,0,0,4.2-4.6V26.81c0-4-2.87-7.2-6.4-7.2H37a7,7,0,1,0-10,0h-.68C22.81,19.61,19.94,22.84,19.94,26.81ZM32,11.74a3,3,0,1,1-3,3A3,3,0,0,1,32,11.74Zm2.59,44.84L32,59.17l-2.59-2.58a1.72,1.72,0,0,0-.5-.36c.09,0,.17,0,.26,0a4.46,4.46,0,0,0,2.83-1,4.46,4.46,0,0,0,2.83,1c.09,0,.17,0,.26,0A1.88,1.88,0,0,0,34.59,56.58Zm5.47-20.5a1.35,1.35,0,0,1-.16.6.7.7,0,0,1-.24-.6V26.81a2,2,0,0,0-4,0V50.92c0,.77-.44,1.34-.83,1.34S34,51.69,34,50.92V35.71a2,2,0,0,0-4,0V50.92c0,.77-.44,1.34-.83,1.34s-.83-.57-.83-1.34V26.81a2,2,0,0,0-4,0v9.27a1.28,1.28,0,0,1-.17.6.71.71,0,0,1-.23-.6V26.81c0-1.73,1.1-3.2,2.4-3.2H37.66c1.3,0,2.4,1.47,2.4,3.2Z"/><path d="M22,3H8A2,2,0,0,0,6,5V60a2,2,0,0,0,2,2H23a2,2,0,0,0,0-4H10V7H22a2,2,0,0,0,0-4Z"/><path d="M41,58a2,2,0,0,0,0,4H56a2,2,0,0,0,2-2V5a2,2,0,0,0-2-2H42a2,2,0,0,0,0,4H54V58Z"/><path d="M29.41,7.41,32,4.83l2.59,2.59A2,2,0,0,0,36,8a2,2,0,0,0,1.42-3.41l-4-4a2,2,0,0,0-2.82,0l-4,4a2,2,0,0,0,2.82,2.82Z"/><text x="0" y="79" fill="#000000" font-size="5px" font-weight="bold" font-family="'Helvetica Neue', Helvetica, Arial-Unicode, Arial, Sans-serif">Created by Lagot Design</text><text x="0" y="84" fill="#000000" font-size="5px" font-weight="bold" font-family="'Helvetica Neue', Helvetica, Arial-Unicode, Arial, Sans-serif">from the Noun Project</text></svg>