<svg className = "w-6 h-6" xmlns="http://www.w3.org/2000/svg" version="1.1" viewBox="-5.0 -10.0 110.0 135.0">
 <g>
  <path d="m9.375 65.625c1.7266 0 3.125-1.3984 3.125-3.125v-25c0-1.7266-1.3984-3.125-3.125-3.125s-3.125 1.3984-3.125 3.125v25c0 1.7266 1.3984 3.125 3.125 3.125z"/>
  <path d="m21.875 68.75v-37.5c0-1.7266-1.3984-3.125-3.125-3.125s-3.125 1.3984-3.125 3.125v37.5c0 1.7266 1.3984 3.125 3.125 3.125s3.125-1.3984 3.125-3.125z"/>
  <path d="m90.625 34.375c-1.7266 0-3.125 1.3984-3.125 3.125v25c0 1.7266 1.3984 3.125 3.125 3.125s3.125-1.3984 3.125-3.125v-25c0-1.7266-1.3984-3.125-3.125-3.125z"/>
  <path d="m84.375 68.75v-37.5c0-1.7266-1.3984-3.125-3.125-3.125s-3.125 1.3984-3.125 3.125v37.5c0 1.7266 1.3984 3.125 3.125 3.125s3.125-1.3984 3.125-3.125z"/>
  <path d="m31.25 25c0-1.7266-1.3984-3.125-3.125-3.125s-3.125 1.3984-3.125 3.125v50c0 1.7266 1.3984 3.125 3.125 3.125s3.125-1.3984 3.125-3.125v-15.625h37.5v15.625c0 1.7266 1.3984 3.125 3.125 3.125s3.125-1.3984 3.125-3.125v-50c0-1.7266-1.3984-3.125-3.125-3.125s-3.125 1.3984-3.125 3.125v15.625h-37.5z"/>
 </g>
</svg>