<svg version="1.0" xmlns="http://www.w3.org/2000/svg"
 width="40.000000pt" height="42.000000pt" viewBox="0 0 40.000000 42.000000"
 preserveAspectRatio="xMidYMid meet">
<g transform="translate(0.000000,42.000000) scale(0.100000,-0.100000)"
fill="#000000" stroke="none">
<path d="M130 351 c-55 -29 -75 -64 -75 -130 0 -47 5 -64 27 -93 92 -120 285
-37 265 113 -14 103 -125 160 -217 110z m131 -23 c39 -22 69 -69 69 -108 0
-59 -71 -130 -130 -130 -59 0 -130 71 -130 130 0 35 40 98 74 114 43 21 72 20
117 -6z"/>
<path d="M190 247 c0 -25 9 -42 35 -67 44 -43 60 -31 17 13 -20 21 -32 43 -32
60 0 15 -4 27 -10 27 -5 0 -10 -15 -10 -33z"/>
</g>
</svg>
