<svg className = "w-6 h-6" xmlns="http://www.w3.org/2000/svg" viewBox="0 0 100 125" fill="none" x="0px" y="0px"><path fill-rule="evenodd" clip-rule="evenodd" d="M7 13C7 9.68629 9.68629 7 13 7H71C74.3137 7 77 9.68629 77 13V55H50.6683C48.7339 55 46.9731 56.1158 46.1471 57.865L43.7222 63H39C36.7909 63 35 64.7909 35 67C35 69.2091 36.7909 71 39 71H39.9444L39.4788 71.9862C39.1635 72.6538 39 73.3829 39 74.1212V77H13C9.68629 77 7 74.3137 7 71V13ZM20.0568 71V12.8182H43.0114C47.4242 12.8182 51.1837 13.661 54.2898 15.3466C57.3958 17.0133 59.7633 19.3333 61.392 22.3068C63.0398 25.2614 63.8636 28.6705 63.8636 32.5341C63.8636 36.3977 63.0303 39.8068 61.3636 42.7614C59.697 45.7159 57.2822 48.017 54.1193 49.6648C50.9754 51.3125 47.1686 52.1364 42.6989 52.1364H32.358V71H20.0568ZM40.7102 42.2784H32.358V22.875H40.6534C43.0398 22.875 45.0095 23.2822 46.5625 24.0966C48.1155 24.892 49.2708 26.0189 50.0284 27.4773C50.8049 28.9167 51.1932 30.6023 51.1932 32.5341C51.1932 34.447 50.8049 36.142 50.0284 37.6193C49.2708 39.0777 48.1155 40.2235 46.5625 41.0568C45.0284 41.8712 43.0777 42.2784 40.7102 42.2784ZM52.5596 57C50.6527 57 48.9119 58.0846 48.0714 59.7962L45.3763 65.2851C45.0325 65.0542 44.6186 64.9195 44.1733 64.9195H39.16C37.9671 64.9195 37 65.8865 37 67.0795C37 68.2724 37.9671 69.2395 39.16 69.2395H43.4346L42.1785 71.7975C41.8418 72.4834 41.6667 73.2373 41.6667 74.0013V82.0356L41.6667 82.04V91C41.6667 92.1045 42.5621 93 43.6667 93H49C50.1046 93 51 92.1045 51 91V88.68H79V91C79 92.1045 79.8954 93 81 93H86.3333C87.4379 93 88.3333 92.1045 88.3333 91V83.68V82.04V74.0013C88.3333 73.2373 88.1582 72.4834 87.8215 71.7975L86.5654 69.2395H90.84C92.0329 69.2395 93 68.2724 93 67.0795C93 65.8865 92.0329 64.9195 90.84 64.9195H85.8267C85.3814 64.9195 84.9675 65.0542 84.6237 65.2851L81.9286 59.7962C81.0881 58.0846 79.3473 57 77.4404 57H52.5596ZM78.4444 76.4406C77.8922 76.4406 77.4444 76.8883 77.4444 77.4406V78.3206C77.4444 78.8729 77.8922 79.3206 78.4444 79.3206H84.2222C84.7745 79.3206 85.2222 78.8729 85.2222 78.3206V77.4406C85.2222 76.8883 84.7745 76.4406 84.2222 76.4406H78.4444ZM44.7778 77.4406C44.7778 76.8883 45.2255 76.4406 45.7778 76.4406H51.5556C52.1078 76.4406 52.5556 76.8883 52.5556 77.4406V78.3206C52.5556 78.8729 52.1078 79.3206 51.5556 79.3206H45.7778C45.2255 79.3206 44.7778 78.8729 44.7778 78.3206V77.4406ZM59.7778 82.9196C59.2255 82.9196 58.7778 83.3673 58.7778 83.9196V84.7996C58.7778 85.3519 59.2255 85.7996 59.7778 85.7996H70.2222C70.7745 85.7996 71.2222 85.3519 71.2222 84.7996V83.9196C71.2222 83.3673 70.7745 82.9196 70.2222 82.9196H59.7778ZM50.4438 59.9912C50.6685 59.4856 51.1699 59.1598 51.7232 59.1598H78.2768C78.8301 59.1598 79.3315 59.4856 79.5562 59.9912L82.7917 67.2712C83.2032 68.197 82.5255 69.2398 81.5124 69.2398H48.4876C47.4745 69.2398 46.7968 68.197 47.2083 67.2712L50.4438 59.9912Z" fill="black"/></svg>