<svg version="1.0" xmlns="http://www.w3.org/2000/svg"
 width="74.000000pt" height="92.000000pt" viewBox="0 0 74.000000 92.000000"
 preserveAspectRatio="xMidYMid meet">
<g transform="translate(0.000000,92.000000) scale(0.100000,-0.100000)"
fill="#000000" stroke="none">
<path d="M339 837 c-40 -18 -59 -37 -74 -73 -7 -18 -23 -35 -35 -39 -28 -9
-55 -35 -75 -75 -13 -25 -15 -68 -15 -256 1 -211 3 -228 21 -248 19 -20 31
-21 210 -23 211 -3 232 2 249 53 13 38 12 427 -1 461 -12 33 -57 80 -89 93
-18 8 -31 22 -35 38 -11 53 -104 93 -156 69z m70 -48 c17 -6 36 -20 42 -30 9
-18 5 -19 -66 -19 -41 0 -75 4 -75 8 0 11 30 38 50 45 8 3 15 6 16 6 1 1 15
-4 33 -10z m118 -115 c15 -12 34 -32 40 -45 18 -33 18 -430 1 -447 -13 -13
-331 -18 -362 -6 -14 5 -16 34 -16 223 0 296 5 303 207 298 85 -2 107 -6 130
-23z"/>
<path d="M244 446 c-16 -12 -19 -28 -20 -108 -2 -127 -1 -128 164 -128 153 0
151 -1 152 123 0 123 -4 127 -158 127 -86 0 -123 -4 -138 -14z m254 -53 c3
-10 -24 -13 -112 -13 -98 0 -116 2 -116 15 0 13 17 15 112 13 78 -2 113 -7
116 -15z m-108 -77 c0 -16 27 -29 41 -20 5 3 9 12 9 20 0 8 10 14 25 14 22 0
25 -4 25 -35 l0 -35 -110 0 -110 0 0 35 0 35 60 0 c45 0 60 -4 60 -14z"/>
</g>
</svg>
