<svg className = "w-6 h-6" xmlns="http://www.w3.org/2000/svg" version="1.1" viewBox="-5.0 -10.0 110.0 135.0">
 <g>
  <path d="m42.102 42.23c0.070313 0.089843 0.14063 0.17969 0.19922 0.26172 0.83984 1.0703 1.7109 1.5 2.7812 1.3398 0.42188-0.058593 0.80078-0.19922 1.1289-0.39844 0.03125-0.019532 0.058593-0.03125 0.089843-0.050782 0.011719 0 0.019531-0.019531 0.03125-0.03125 0.5-0.33984 0.89844-0.87109 1.2109-1.5898 0.039062-0.10156 0.089843-0.19922 0.12891-0.30859 0.30859-0.80859 0.39844-1.6797 0.44141-2.5312 0.019531-0.32031 0.03125-0.62891 0.03125-0.92969 0-0.39844-0.019531-0.76953-0.03125-1.1289-0.070312-1.3594-0.25-2.4609-0.57031-3.4688-0.21875-0.66016-0.60938-1.5117-1.2891-1.7695-0.10938-0.039062-0.21875-0.050781-0.33984-0.058594-0.058593 0-0.10937-0.03125-0.17187-0.03125-0.57031 0-1.1914 0.28125-1.6602 0.55078-0.55078 0.32031-1.0312 0.71094-1.4609 1.1484-0.30859 0.30859-0.57812 0.64844-0.82031 1.0117-0.46094 0.69141-0.78906 1.4492-0.96875 2.2695-0.10938 0.51172-0.16016 1.0312-0.14844 1.5508 0.019531 1.1289 0.32031 2.2383 0.87109 3.2891 0.16016 0.28906 0.32812 0.57812 0.53125 0.85938z"/>
  <path d="m52.621 42.211c0.32812 0.55859 0.75 0.96875 1.2188 1.25 0.30859 0.19141 0.64062 0.32812 1 0.37891 0.41016 0.050781 0.80859 0 1.2109-0.14062 0.089844-0.03125 0.17188-0.070313 0.26172-0.10938 0.35156-0.16016 0.67969-0.37891 0.98828-0.67969 1.5312-1.5 2.2188-3.7383 1.8516-5.9688-0.050782-0.28125-0.10938-0.55859-0.19141-0.82031-0.53906-1.8711-1.8008-3.3984-3.4805-4.2109-0.10156-0.050781-0.17969-0.070312-0.28125-0.10938-0.37891-0.14844-0.73047-0.25-1.0195-0.25-0.17969 0-0.35156 0.03125-0.5 0.089844h-0.03125c-0.39063 0.16016-0.71875 0.53906-0.98828 1.1289-0.050781 0.10938-0.10156 0.21094-0.14844 0.32812-0.10156 0.28125-0.19141 0.57031-0.26953 0.85938-0.30078 1.1094-0.44141 2.3516-0.42969 3.8398 0 0.53125 0.011719 0.98047 0.039062 1.3984 0.070313 1.3789 0.30078 2.2305 0.76172 3.0117z"/>
  <path d="m59.371 54.879c-0.33984-0.73047-0.85156-1.3984-1.5312-1.9688-0.28125-0.23047-0.57031-0.48047-0.85156-0.73828-0.46094-0.42969-0.91016-0.89844-1.3008-1.4414-0.37891-0.53125-0.75-1.0703-1.1211-1.6094-0.14844-0.21875-0.30078-0.42969-0.44922-0.64062-0.17969-0.26172-0.35938-0.53125-0.55078-0.78906-0.32812-0.46094-0.69922-0.83984-1.1016-1.1211h-0.011719c-0.67969-0.46875-1.4688-0.71094-2.3984-0.71094-0.26172 0-0.53125 0.019531-0.80859 0.050781-0.80859 0.10156-1.5 0.42188-2.1289 0.98828-0.37891 0.33984-0.73828 0.78125-1.0781 1.3086-0.019531 0.039063-0.050781 0.070313-0.070312 0.10938-1.0586 1.6094-2.3789 3.4492-4.1719 4.9414-0.60938 0.5-1.0391 1.1289-1.3086 1.8594-0.21875 0.57812-0.35156 1.2305-0.35156 1.9492 0 0.60938 0.10938 1.1992 0.30078 1.7617 0.19922 0.57812 0.51172 1.1211 0.89844 1.6016 0.26172 0.30859 0.55859 0.60156 0.89844 0.85937 0.32812 0.25 0.67188 0.44922 1.0391 0.60938 1.0898 0.48047 2.3086 0.57031 3.4805 0.23828 0.26172-0.078125 0.51953-0.14062 0.78125-0.19922 1.8789-0.41016 3.7188-0.35938 5.6016 0.17188 1.5898 0.44922 3.1602 0.17188 4.3984-0.67969 0.21875-0.14844 0.44141-0.32031 0.64062-0.51172 0.44141-0.41016 0.80859-0.91016 1.1094-1.4883 0.64844-1.2695 0.73828-2.6211 0.35156-3.8594-0.070313-0.21875-0.14844-0.44141-0.25-0.66016z"/>
  <path d="m66.27 44.059c-0.10938-0.53125-0.25-1.0391-0.39844-1.5312-0.078125-0.26172-0.14844-0.51172-0.23828-0.76172-0.039062-0.10156-0.078124-0.17188-0.10937-0.26172-0.30078-0.69922-0.67188-1.1602-1.0508-1.2305h-0.070312c-0.03125 0-0.050782-0.011719-0.078125-0.011719-0.17969 0-0.39062 0.078125-0.62109 0.19922-0.19141 0.10156-0.37891 0.25-0.57812 0.42969-0.10156 0.089844-0.19922 0.17188-0.30078 0.28125-0.058594 0.058594-0.10938 0.12109-0.16016 0.17969-0.050781 0.058594-0.10937 0.10938-0.14844 0.17969-1.6992 2.25-2.6289 4.7188-2.7695 7.3398-0.050782 0.96094 0.17969 1.7188 0.62109 2.1797 0.050781 0.050781 0.078124 0.10938 0.12891 0.14844 0.078125 0.058593 0.17969 0.10156 0.26953 0.14844 0.55078 0.28906 1.3086 0.33984 2.1992 0.089844 0.57031-0.16016 1.0781-0.39062 1.5195-0.71094 1.3086-0.94141 2.0195-2.5703 2.0195-4.7383 0.03125-0.37891-0.03125-0.83984-0.10156-1.2695-0.039063-0.23828-0.089844-0.46875-0.12891-0.67969z"/>
  <path d="m39.469 45.051c-0.55078-1.4609-1.4102-2.8398-2.5781-4.1094-0.23828-0.26172-0.46875-0.44141-0.69141-0.55078-0.17969-0.089844-0.35156-0.14844-0.5-0.14844h-0.12109c-0.39062 0.070312-0.78906 0.48828-1.1016 1.1719-0.35156 0.78906-0.60156 1.5781-0.76172 2.4492-0.16016 0.87109-0.23047 1.8086-0.21875 2.8984 0 0.14062 0.019531 0.28125 0.03125 0.42188 0.10156 1.4219 0.69141 2.6016 1.6914 3.3906 0.35156 0.26953 0.75 0.48047 1.1914 0.66016 0.39844 0.16016 0.80859 0.28906 1.2812 0.35938 0.75 0.10938 1.3789-0.011719 1.8086-0.37109 0.089844-0.078125 0.17969-0.17188 0.25-0.26172 0.23828-0.30859 0.39062-0.73828 0.42188-1.25 0.089844-1.6289-0.14844-3.1797-0.69922-4.6484z"/>
  <path d="m50 20.5c-9.1602-9.0781-24-9.0586-33.129 0.070312-9.1484 9.1484-9.1484 24.051 0 33.211l32.07 32.07c0.28906 0.28906 0.67969 0.44141 1.0586 0.44141s0.76953-0.14844 1.0586-0.44141l32.07-32.07c9.1484-9.1602 9.1484-24.051 0-33.211-9.1289-9.1289-23.969-9.1602-33.129-0.070312zm31.012 31.16-31.012 31.012-31.012-31.012c-7.9805-7.9805-7.9805-20.98 0-28.961 3.9883-3.9883 9.2383-5.9883 14.48-5.9883 5.2383 0 10.488 2 14.48 5.9883l0.98828 0.98828c0.28125 0.28125 0.66016 0.44141 1.0586 0.44141 0.39844 0 0.78125-0.16016 1.0586-0.44141l0.98828-0.98828c7.9805-7.9805 20.969-7.9805 28.961 0 7.9805 7.9805 7.9805 20.98 0 28.961z"/>
 </g>
</svg>