<svg xmlns="http://www.w3.org/2000/svg" version="1.1" viewBox="-5.0 -10.0 110.0 135.0">
 <path d="m39.5 20c0-5.7891 4.7109-10.5 10.5-10.5s10.5 4.7109 10.5 10.5-4.7109 10.5-10.5 10.5-10.5-4.7109-10.5-10.5zm-28.109 35.172c-0.46094 0.69141-0.28125 1.6211 0.41016 2.0781 0.26172 0.17188 0.55078 0.25 0.82812 0.25 0.48047 0 0.96094-0.23047 1.25-0.67188 2.4297-3.6406 2.1094-8.6094-0.76172-11.828-1.9492-2.1797-2.1602-5.6914-0.51172-8.1719 0.46094-0.69141 0.28125-1.6211-0.41016-2.0781-0.69141-0.46094-1.6211-0.28125-2.0781 0.41016-2.4258 3.6406-2.1055 8.6211 0.76172 11.84 1.9492 2.1797 2.1602 5.6914 0.51172 8.1719zm12-20c-0.46094 0.69141-0.28125 1.6211 0.41016 2.0781 0.26172 0.17188 0.55078 0.25 0.82812 0.25 0.48047 0 0.96094-0.23047 1.25-0.67188 2.4297-3.6406 2.1094-8.6094-0.76172-11.828-1.9492-2.1797-2.1602-5.6914-0.51172-8.1719 0.46094-0.69141 0.28125-1.6211-0.41016-2.0781-0.69141-0.46094-1.6211-0.28125-2.0781 0.41016-2.4297 3.6406-2.1094 8.6094 0.76172 11.828 1.9492 2.1914 2.1602 5.7031 0.51172 8.1836zm52 0c-0.46094 0.69141-0.28125 1.6211 0.41016 2.0781 0.26172 0.17188 0.55078 0.25 0.82812 0.25 0.48047 0 0.96094-0.23047 1.25-0.67188 2.4297-3.6406 2.1094-8.6094-0.76172-11.828-1.9492-2.1797-2.1602-5.6914-0.51172-8.1719 0.46094-0.69141 0.28125-1.6211-0.41016-2.0781-0.69141-0.46094-1.6211-0.28125-2.0781 0.41016-2.4297 3.6406-2.1094 8.6094 0.76172 11.828 1.9492 2.1914 2.1602 5.7031 0.51172 8.1836zm12 20c-0.46094 0.69141-0.28125 1.6211 0.41016 2.0781 0.26172 0.17188 0.55078 0.25 0.82812 0.25 0.48047 0 0.96094-0.23047 1.25-0.67188 2.4297-3.6406 2.1094-8.6094-0.76172-11.828-1.9492-2.1797-2.1602-5.6914-0.51172-8.1719 0.46094-0.69141 0.28125-1.6211-0.41016-2.0781-0.69141-0.46094-1.6211-0.28125-2.0781 0.41016-2.4297 3.6406-2.1094 8.6094 0.76172 11.828 1.9492 2.1914 2.1602 5.7031 0.51172 8.1836zm4.1094 14.828v8.5h-21.5c-0.82812 0-1.5 0.67188-1.5 1.5s0.67188 1.5 1.5 1.5h21.5v8.5c0 0.82812-0.67188 1.5-1.5 1.5h-80c-0.82812 0-1.5-0.67188-1.5-1.5v-8.5h21.5c0.82812 0 1.5-0.67188 1.5-1.5s-0.67188-1.5-1.5-1.5h-21.5v-8.5c0-0.82812 0.67188-1.5 1.5-1.5h21.109c-0.39062-0.75-0.60938-1.6016-0.60938-2.5v-20.16c0-6.25 5.0781-11.34 11.34-11.34h16.328c6.25 0 11.34 5.0781 11.34 11.34l0.003907 20.16c0 0.89844-0.21875 1.75-0.60938 2.5h21.098c0.82812 0 1.5 0.67188 1.5 1.5zm-55.5-1.5c1.3789 0 2.5-1.1211 2.5-2.5v-20c0-0.82812 0.67188-1.5 1.5-1.5s1.5 0.67188 1.5 1.5v15.531c1.0117-0.64844 2.2109-1.0312 3.5-1.0312 1.7305 0 3.3594 0.67188 4.5898 1.8906 0.14062 0.14844 0.28125 0.30078 0.41016 0.46094 1.1914-1.4297 2.9883-2.3516 5-2.3516 1.2617 0 2.4609 0.35938 3.5 1.0195v-15.52c0-0.82812 0.67188-1.5 1.5-1.5s1.5 0.67188 1.5 1.5v20c0 1.3789 1.1211 2.5 2.5 2.5s2.5-1.1211 2.5-2.5v-20.16c0-4.6016-3.7383-8.3398-8.3398-8.3398h-16.32c-4.6016 0-8.3398 3.7383-8.3398 8.3398v20.16c0 1.3789 1.1211 2.5 2.5 2.5zm22.5 16.5v-18c0-0.92969-0.35938-1.8203-1.0312-2.4883-0.66016-0.64844-1.5391-1.0117-2.4688-1.0117-1.9297 0-3.5 1.5703-3.5 3.5v18c0 0.92969 0.35938 1.8203 1.0312 2.4883 0.66016 0.64844 1.5391 1.0117 2.4688 1.0117 1.9297 0 3.5-1.5703 3.5-3.5zm-13.5 3.5c1.9297 0 3.5-1.5703 3.5-3.5v-18c0-0.92969-0.35938-1.8203-1.0312-2.4883-0.66016-0.64844-1.5391-1.0117-2.4688-1.0117-1.9297 0-3.5 1.5703-3.5 3.5v18c0 0.92969 0.35938 1.8203 1.0312 2.4883 0.64844 0.65234 1.5391 1.0117 2.4688 1.0117z"/>
<text x="0.0" y="117.5" font-size="5.0" font-weight="bold" font-family="Arbeit Regular, Helvetica, Arial-Unicode, Arial, Sans-serif" fill="#000000">Created by IconPai</text><text x="0.0" y="122.5" font-size="5.0" font-weight="bold" font-family="Arbeit Regular, Helvetica, Arial-Unicode, Arial, Sans-serif" fill="#000000">from Noun Project</text></svg>