<svg xmlns="http://www.w3.org/2000/svg" version="1.1" viewBox="-5.0 -10.0 110.0 135.0">
 <path d="m52.078 79.309c3.3477-5.5273 5.082-8.7422 4.9492-12.145-0.12891-3.3203-2.0234-7.0664-5.918-13.527-7.1133 11.676-8.0977 13.539-0.9375 25.668h1.9062zm-37.23 7.3906h70.387c1.5039 0 2.7383-1.2344 2.7383-2.7422v-2.7383l-75.863-0.003906v2.7383c0 1.5078 1.2344 2.7422 2.7383 2.7422zm20.398-60.496v-8.5977c0-3.7773-4.6133-5.7656-7.3438-3.0352-0.78125 0.78125-1.2656 1.8555-1.2656 3.0352v8.5977zm12.988 28.508c-1.8711-4.0312-5.1172-7.3086-9.1328-9.2148-0.62109 0.40234-1.3594 0.64062-2.1523 0.64062h-12.016c-0.79297 0-1.5312-0.23828-2.1523-0.64062-10.117 4.7969-13.941 17.285-8.2461 26.914 1.6992 2.8672 4.1328 5.2539 7.0352 6.8984h15.117c-0.71484-0.88281-1.2734-1.9766-1.7344-3.3711-0.79297-2.3789-1.2969-5.6133-1.8711-10.188-0.078125-0.62109 0.47266-1.1406 1.082-1.0586 3.5938 0.47656 6.5859 0.75781 9.0977 1.4023 0.26562-3.2227 1.9844-6.4219 4.9805-11.383zm-23.305-10.484h12.016c1.7969 0 2.7539-2.1953 1.4453-3.4961-0.37109-0.375-0.88281-0.60547-1.4453-0.60547h-12.016c-1.793 0-2.75 2.1953-1.4453 3.4961 0.37109 0.375 0.88281 0.60547 1.4453 0.60547zm0-6.0078h12.016c1.7969 0 2.7539-2.1953 1.4453-3.4961-0.37109-0.375-0.88281-0.60547-1.4453-0.60547h-12.016c-1.793 0-2.75 2.1953-1.4453 3.4961 0.37109 0.375 0.88281 0.60547 1.4453 0.60547zm0-6.0117h12.016c1.793 0 2.7539-2.1953 1.4453-3.4961-0.37109-0.37109-0.88281-0.60547-1.4453-0.60547h-12.016c-1.793 0-2.75 2.1953-1.4453 3.5 0.37109 0.37109 0.88281 0.59766 1.4453 0.59766zm44.082 34.609h6.582c2.9961 0 4.7891-1.9258 5.168-4.3359h-14.742c-0.52734 0-0.94922-0.42969-0.94922-0.95703 0-0.52734 0.42188-0.94922 0.94922-0.94922h14.746c-0.38672-2.4102-2.1719-4.3398-5.1719-4.3398h-20.75c2.3672 4.1719 3.668 7.1406 4 9.8828 2.5234-0.65625 5.5508-0.94141 9.2188-1.4297 0.60938-0.082031 1.1562 0.4375 1.082 1.0586-0.046875 0.36328-0.089843 0.72266-0.13672 1.0664zm13.938 12.488c2.9961 0 4.7852-1.9258 5.168-4.3398h-15.621c-0.52734 0-0.95703-0.42188-0.95703-0.94922s0.42969-0.95703 0.95703-0.95703h15.621c-0.38281-2.4102-2.1719-4.3359-5.168-4.3359h-14.191c-0.53906 3.8711-1.2266 8.1367-3.2109 10.578h17.406zm-22.098-24.977h9c6.9883-0.003906 6.9922-10.578-0.003906-10.578h-8.9883c-6.9961 0-6.9961 10.574-0.003906 10.578zm-17.578 13.734c-1.9492-0.55859-4.5977-0.89844-8.1523-1.332 0.5 3.8398 0.96094 6.6094 1.625 8.6094 0.64453 1.9453 1.4922 3.1602 2.7852 3.9648h8.4297c-2.875-4.9492-4.3945-8.2539-4.6914-11.242zm19.414 11.242c1.293-0.80469 2.1406-2.0195 2.7891-3.9648 0.66406-2 1.125-4.7734 1.6211-8.6094-3.5625 0.44141-6.2148 0.77344-8.1797 1.3438-0.15234 3.3125-1.7578 6.4375-4.6289 11.234h8.3945z"/>
<text x="0.0" y="117.5" font-size="5.0" font-weight="bold" font-family="Arbeit Regular, Helvetica, Arial-Unicode, Arial, Sans-serif" fill="#000000">Created by AGE</text><text x="0.0" y="122.5" font-size="5.0" font-weight="bold" font-family="Arbeit Regular, Helvetica, Arial-Unicode, Arial, Sans-serif" fill="#000000">from Noun Project</text></svg>