<svg xmlns="http://www.w3.org/2000/svg" xmlns:xlink="http://www.w3.org/1999/xlink" xml:space="preserve" version="1.1" style="shape-rendering:geometricPrecision;text-rendering:geometricPrecision;image-rendering:optimizeQuality;" viewBox="0 0 846.66 1058.325" x="0px" y="0px" fill-rule="evenodd" clip-rule="evenodd"><defs><style type="text/css">
   
    .fil0 {fill:black;fill-rule:nonzero}
   
  </style></defs><g><path class="fil0" d="M42.5 561.44c-9.31,0.33 -17.13,-6.95 -17.46,-16.26 -0.33,-9.31 6.95,-17.13 16.26,-17.46 9.57,-0.34 18.42,-3.99 25.32,-9.87 6.88,-5.88 11.86,-14.05 13.7,-23.47 1.78,-9.16 10.68,-15.14 19.84,-13.36 6.95,1.35 12.07,6.8 13.36,13.36 1.84,9.42 6.82,17.6 13.71,23.47 6.76,5.76 15.38,9.38 24.72,9.84 9.33,-0.46 17.96,-4.08 24.71,-9.84 6.89,-5.87 11.87,-14.05 13.71,-23.47 1.78,-9.16 10.68,-15.14 19.84,-13.36 6.95,1.35 12.07,6.8 13.36,13.36 1.84,9.42 6.82,17.6 13.71,23.47 6.76,5.76 15.38,9.38 24.73,9.84 9.33,-0.46 17.95,-4.07 24.71,-9.84 6.88,-5.88 11.86,-14.06 13.71,-23.47 1.78,-9.16 10.68,-15.14 19.84,-13.36 6.95,1.35 12.07,6.8 13.36,13.36 1.84,9.42 6.82,17.6 13.71,23.47 6.75,5.76 15.38,9.38 24.71,9.84 9.34,-0.46 17.96,-4.07 24.72,-9.84 6.89,-5.87 11.87,-14.05 13.71,-23.47 1.78,-9.16 10.68,-15.14 19.84,-13.36 6.95,1.35 12.07,6.8 13.36,13.36 1.84,9.42 6.82,17.6 13.71,23.47 6.75,5.76 15.38,9.38 24.71,9.84 9.35,-0.46 17.96,-4.07 24.72,-9.83 6.89,-5.87 11.87,-14.06 13.72,-23.48 1.78,-9.16 10.68,-15.14 19.84,-13.36 6.95,1.35 12.07,6.8 13.36,13.36 1.84,9.42 6.82,17.6 13.71,23.47 6.75,5.76 15.38,9.38 24.71,9.84 9.34,-0.46 17.96,-4.07 24.72,-9.84 6.89,-5.87 11.87,-14.05 13.71,-23.47 1.78,-9.16 10.68,-15.14 19.84,-13.36 6.95,1.35 12.07,6.8 13.36,13.36 1.84,9.42 6.82,17.6 13.71,23.47 6.89,5.88 15.75,9.53 25.31,9.87 9.31,0.33 16.59,8.15 16.26,17.46 -0.33,9.31 -8.15,16.59 -17.46,16.26 -17.44,-0.63 -33.54,-7.23 -46.07,-17.93 -2.99,-2.55 -5.79,-5.34 -8.35,-8.34 -2.56,3 -5.36,5.79 -8.35,8.34 -12.5,10.66 -28.52,17.25 -45.9,17.92l-1.38 0.01c-17.44,-0.63 -33.54,-7.23 -46.07,-17.93 -2.99,-2.55 -5.79,-5.34 -8.35,-8.34 -2.57,3 -5.36,5.8 -8.36,8.35 -12.5,10.66 -28.52,17.24 -45.9,17.91l-1.38 0.01c-17.44,-0.63 -33.54,-7.23 -46.07,-17.93 -2.99,-2.55 -5.79,-5.34 -8.35,-8.34 -2.56,3 -5.36,5.79 -8.35,8.34 -12.5,10.66 -28.52,17.25 -45.9,17.92l-1.38 0.01c-17.44,-0.63 -33.54,-7.23 -46.07,-17.93 -2.99,-2.55 -5.79,-5.34 -8.35,-8.34 -2.57,3 -5.36,5.79 -8.35,8.34 -12.5,10.66 -28.52,17.25 -45.89,17.92l-1.38 0.01c-17.45,-0.63 -33.55,-7.23 -46.09,-17.93 -2.99,-2.55 -5.79,-5.34 -8.35,-8.34 -2.56,3 -5.36,5.79 -8.35,8.34 -12.5,10.66 -28.53,17.25 -45.89,17.92l-1.38 0.01c-17.44,-0.63 -33.54,-7.23 -46.08,-17.93 -2.99,-2.55 -5.79,-5.34 -8.35,-8.34 -2.56,3 -5.35,5.79 -8.34,8.34 -12.54,10.7 -28.64,17.3 -46.08,17.93zm486.57 -326.72c23,0 43.89,9.36 59.04,24.49 15.73,15.73 24.56,36.85 24.56,59.11 0,23 -9.36,43.89 -24.49,59.04 -15.73,15.73 -36.85,24.56 -59.11,24.56 -23,0 -43.89,-9.36 -59.04,-24.49 -15.73,-15.73 -24.56,-36.85 -24.56,-59.11 0,-23 9.36,-43.89 24.49,-59.04 15.73,-15.73 36.85,-24.56 59.11,-24.56zm35.2 48.39c-8.97,-8.98 -21.42,-14.53 -35.2,-14.53 -13.78,0 -26.23,5.55 -35.17,14.5 -9.02,9.01 -14.57,21.46 -14.57,35.24 0,13.78 5.55,26.23 14.5,35.17 9.01,9.02 21.46,14.57 35.24,14.57 13.78,0 26.23,-5.55 35.17,-14.5 9.02,-9.01 14.57,-21.46 14.57,-35.24 0,-13.78 -5.55,-26.23 -14.54,-35.21zm-298.9 189.23c-6.61,6.61 -17.33,6.61 -23.94,0 -6.61,-6.61 -6.61,-17.33 0,-23.94l72.02 -72.02 -77.73 -77.72c-6.61,-6.61 -6.61,-17.33 0,-23.94 30.29,-28.08 60.44,-60.4 89.81,-89.81 8.58,-8.58 19.88,-12.88 31.15,-12.88 11.28,0 22.58,4.3 31.16,12.88 8.58,8.58 12.88,19.88 12.88,31.16 0,11.27 -4.3,22.57 -12.88,31.15l-39.46 39.47 160.02 160.02c6.61,6.61 6.61,17.33 0,23.94 -6.61,6.61 -17.33,6.61 -23.94,0l-171.99 -171.99c-6.61,-6.61 -6.61,-17.33 0,-23.94l51.43 -51.44c1.97,-1.97 2.96,-4.59 2.96,-7.21 0,-2.63 -0.99,-5.25 -2.96,-7.22 -1.97,-1.97 -4.59,-2.96 -7.22,-2.96 -2.62,0 -5.24,0.99 -7.21,2.96l-77.88 77.8 77.77 77.76c6.61,6.61 6.61,17.33 0,23.94l-83.99 83.99zm-120.33 202.28c-9.31,0.33 -17.13,-6.95 -17.46,-16.26 -0.33,-9.31 6.95,-17.13 16.26,-17.46 9.57,-0.34 18.42,-3.99 25.32,-9.87 6.88,-5.88 11.86,-14.06 13.7,-23.47 1.78,-9.16 10.68,-15.14 19.84,-13.36 6.95,1.35 12.07,6.8 13.36,13.36 1.85,9.41 6.83,17.6 13.72,23.47 6.76,5.76 15.38,9.38 24.72,9.84 9.33,-0.46 17.95,-4.07 24.71,-9.84 6.89,-5.87 11.87,-14.05 13.71,-23.47 1.78,-9.16 10.68,-15.14 19.84,-13.36 6.95,1.35 12.07,6.8 13.36,13.36 1.85,9.41 6.83,17.59 13.71,23.47 6.76,5.76 15.38,9.38 24.72,9.84 9.33,-0.46 17.95,-4.07 24.71,-9.84 6.89,-5.87 11.87,-14.05 13.71,-23.47 1.78,-9.16 10.68,-15.14 19.84,-13.36 6.95,1.35 12.07,6.8 13.36,13.36 1.85,9.41 6.82,17.59 13.72,23.47 6.76,5.77 15.38,9.38 24.71,9.84 9.34,-0.46 17.96,-4.08 24.72,-9.84 6.88,-5.88 11.86,-14.06 13.71,-23.47 1.78,-9.16 10.68,-15.14 19.84,-13.36 6.95,1.35 12.07,6.8 13.36,13.36 1.84,9.42 6.82,17.6 13.71,23.47 6.76,5.77 15.38,9.38 24.71,9.84 9.34,-0.46 17.96,-4.08 24.72,-9.84 6.88,-5.88 11.86,-14.06 13.71,-23.47 1.78,-9.16 10.68,-15.14 19.84,-13.36 6.95,1.35 12.07,6.8 13.36,13.36 1.85,9.41 6.82,17.59 13.72,23.47 6.76,5.77 15.38,9.38 24.71,9.84 9.34,-0.46 17.96,-4.08 24.72,-9.84 6.88,-5.88 11.86,-14.06 13.71,-23.47 1.78,-9.16 10.68,-15.14 19.84,-13.36 6.95,1.35 12.07,6.8 13.36,13.36 1.84,9.42 6.82,17.6 13.71,23.47 6.9,5.89 15.75,9.53 25.31,9.87 9.31,0.33 16.59,8.15 16.26,17.46 -0.33,9.31 -8.15,16.59 -17.46,16.26 -17.44,-0.63 -33.53,-7.23 -46.07,-17.93 -2.99,-2.55 -5.79,-5.34 -8.35,-8.34 -2.57,3 -5.36,5.79 -8.35,8.34 -12.5,10.66 -28.53,17.25 -45.9,17.92l-1.38 0.01c-17.44,-0.63 -33.53,-7.23 -46.07,-17.93 -3,-2.56 -5.79,-5.35 -8.36,-8.35 -2.56,3 -5.36,5.79 -8.35,8.35 -12.5,10.66 -28.53,17.25 -45.9,17.92l-1.38 0.01c-17.44,-0.63 -33.53,-7.23 -46.07,-17.93 -2.99,-2.55 -5.79,-5.34 -8.35,-8.34 -2.57,3 -5.36,5.79 -8.35,8.34 -12.5,10.66 -28.53,17.25 -45.9,17.92l-1.38 0.01c-17.44,-0.63 -33.53,-7.23 -46.07,-17.93 -3,-2.55 -5.79,-5.34 -8.36,-8.34 -2.56,3 -5.36,5.79 -8.35,8.34 -12.5,10.66 -28.52,17.25 -45.89,17.92l-1.38 0.01c-17.44,-0.63 -33.54,-7.23 -46.08,-17.93 -2.99,-2.55 -5.78,-5.34 -8.35,-8.34 -2.56,3 -5.36,5.79 -8.35,8.34 -12.5,10.66 -28.52,17.25 -45.89,17.92l-1.38 0.01c-17.44,-0.63 -33.54,-7.23 -46.08,-17.93 -2.99,-2.55 -5.79,-5.34 -8.35,-8.34 -2.57,3 -5.36,5.79 -8.35,8.34 -12.54,10.7 -28.64,17.3 -46.08,17.93z"/></g><text x="0" y="861.66" fill="#000000" font-size="5px" font-weight="bold" font-family="'Helvetica Neue', Helvetica, Arial-Unicode, Arial, Sans-serif">Created by M. Zildan Shidqi Habibi</text><text x="0" y="866.66" fill="#000000" font-size="5px" font-weight="bold" font-family="'Helvetica Neue', Helvetica, Arial-Unicode, Arial, Sans-serif">from the Noun Project</text></svg>