<svg xmlns="http://www.w3.org/2000/svg" version="1.1" viewBox="-5.0 -10.0 110.0 135.0">
 <path d="m64.242 64.855 0.046874-2.918-12.391 0.007812c-0.011719 0-0.023438 0.003907-0.035157 0.003907s-0.023437 0-0.035156-0.003907l-3.6914 0.003907-11.527 0.007812v2.8984h27.641zm-12.793 0.82031h-2.9062l0.007812 18.738h2.8984zm0-22.762c-0.24219 0.007813-0.48828 0.015626-0.73047 0.023438-0.72656 0.019531-1.457 0.027344-2.1875 0.019531l0.007812 18.172 2.9102-0.003906v-18.215zm14.922-6.1758c0.34766 0.98047 1.4453 3.1094 1.7461 3.6875 1.7109 0.55469 4.1484 0.89453 6.7422 0.83984 2.2227-0.050781 4.5547-0.39453 6.6289-1.1484 0.25391-0.40234 1.125-1.8047 1.9922-3.375h-17.109zm-31.668 0c0.58203 1.2969 1.4766 3.3906 1.7422 4.0234 3.9922 1.0273 9.1992 1.4961 14.254 1.3594 0.37109-0.011719 0.73828-0.023438 1.1055-0.039063 0.015624-0.003906 0.035156-0.003906 0.054687-0.003906h0.015625c4.4062-0.19922 8.6055-0.87109 11.676-2.0469 0.28906-0.48828 1.3789-2.3242 1.8086-3.293zm-19.164 0c0.097657 1.0391 0.73047 2.457 0.96094 2.9453 2.2188 0.49219 4.5625 0.77344 7.0859 0.8125 2.5625 0.042968 5.3125-0.16016 8.3125-0.63672 0.32812-0.375 1.4414-1.7227 1.7109-3.1211l-18.074-0.003906zm36.02-20.645c2.8398 2.8945 5.4844 5.8672 7.8359 8.9609 2.6289 3.457 4.8945 7.0625 6.6641 10.867h17.109c-4.0195-3.8906-8.5977-7.5547-13.895-10.918-5.1641-3.2773-11.016-6.2695-17.711-8.9062zm-17.742 19.824c2.1328-4.1875 4.5273-8.0078 7.1445-11.504 2.2852-3.0469 4.7383-5.8398 7.3477-8.4141-6.2148 2.1914-11.938 4.9336-17.207 8.1836-5.4688 3.375-10.449 7.3008-14.984 11.73h17.699zm31.34 0h-30.418c2.0664-4.0039 4.3672-7.6641 6.8789-11.012 2.5547-3.4062 5.3281-6.4961 8.293-9.3164 3.2227 3.2109 6.2148 6.5117 8.8359 9.9609 2.5156 3.3047 4.6914 6.7461 6.4102 10.367zm4.8633 48.496h2.8984v-13.84c0-0.22656 0.18359-0.41016 0.41016-0.41016h10.535c0.22656 0 0.41016 0.18359 0.41016 0.41016v13.844h2.8984v-17.559c0-0.027344 0.003906-0.058594 0.007813-0.085937l2.5234-17.477h-2.8906l-2.5391 17.594c-0.015626 0.21094-0.19531 0.375-0.40625 0.375h-13.84v17.148zm-53.875-17.148c-0.21484 0-0.39062-0.16406-0.40625-0.375l-2.5391-17.594h-2.8906l2.5234 17.477c0.007813 0.027343 0.007813 0.054687 0.007813 0.085937v17.559h2.8984v-13.844c0-0.22656 0.18359-0.41016 0.41016-0.41016h10.535c0.22656 0 0.41016 0.18359 0.41016 0.41016v13.84h2.8984v-17.148z" fill-rule="evenodd"/>
<text x="0.0" y="117.5" font-size="5.0" font-weight="bold" font-family="Arbeit Regular, Helvetica, Arial-Unicode, Arial, Sans-serif" fill="#000000">Created by Art Isnakafa</text><text x="0.0" y="122.5" font-size="5.0" font-weight="bold" font-family="Arbeit Regular, Helvetica, Arial-Unicode, Arial, Sans-serif" fill="#000000">from Noun Project</text></svg>