<svg xmlns="http://www.w3.org/2000/svg" viewBox="0 0 64 80" x="0px" y="0px"><title>guest amenities</title><path d="M46,0H18a6,6,0,0,0-6,6V58a6,6,0,0,0,6,6H46a6,6,0,0,0,6-6V6A6,6,0,0,0,46,0Zm2,58a2,2,0,0,1-2,2H18a2,2,0,0,1-2-2V6a2,2,0,0,1,2-2h4.08V7a2,2,0,0,0,2,2H39.92a2,2,0,0,0,2-2V4H46a2,2,0,0,1,2,2Z"/><path d="M32,26a12.77,12.77,0,0,0-9.09,3.76,2,2,0,1,0,2.83,2.83,8.86,8.86,0,0,1,12.52,0,2,2,0,0,0,2.83-2.83A12.77,12.77,0,0,0,32,26Z"/><path d="M26.45,34.83a2,2,0,0,0,2.83,2.83,3.85,3.85,0,0,1,5.44,0,2,2,0,0,0,1.41.58,2,2,0,0,0,1.42-3.41A7.86,7.86,0,0,0,26.45,34.83Z"/><path d="M18.8,24.94a2,2,0,0,0,2.82,2.83,14.68,14.68,0,0,1,20.76,0,2,2,0,1,0,2.82-2.83A18.69,18.69,0,0,0,18.8,24.94Z"/><circle cx="32" cy="40.53" r="2"/><text x="0" y="79" fill="#000000" font-size="5px" font-weight="bold" font-family="'Helvetica Neue', Helvetica, Arial-Unicode, Arial, Sans-serif">Created by Lagot Design</text><text x="0" y="84" fill="#000000" font-size="5px" font-weight="bold" font-family="'Helvetica Neue', Helvetica, Arial-Unicode, Arial, Sans-serif">from the Noun Project</text></svg>